<?xml version="1.0" standalone="no"?>
<!DOCTYPE svg PUBLIC "-//W3C//DTD SVG 1.1//EN" "http://www.w3.org/Graphics/SVG/1.1/DTD/svg11.dtd" >
<svg xmlns="http://www.w3.org/2000/svg">
<metadata>Generated by IcoMoon</metadata>
<defs>
<font id="icomoon" horiz-adv-x="1024">
<font-face units-per-em="1024" ascent="960" descent="-64" />
<missing-glyph horiz-adv-x="1024" />
<glyph unicode="&#x20;" horiz-adv-x="512" d="" />
<glyph unicode="&#xe900;" glyph-name="0" d="M521.846 918.318c97.148 0 170.666-40.26 220.554-120.779 50.324-80.52 75.487-195.61 75.487-345.272 0-150.097-25.163-265.63-75.487-346.584-49.887-80.518-123.405-120.781-220.554-120.781s-170.886 40.262-221.21 120.781c-49.887 80.954-74.831 196.486-74.831 346.584 0 149.661 24.944 264.752 74.831 345.272 50.324 80.52 124.061 120.779 221.21 120.779zM521.846 829.702c-55.576 0-99.337-29.539-131.283-88.615-31.945-58.639-47.917-154.913-47.917-288.82 0-100.212 7.658-178.98 22.974-236.305l276.349 555.32c-27.569 38.947-67.61 58.42-120.123 58.42zM701.702 452.267c0 101.087-7.876 180.075-23.631 236.964l-275.036-557.295c27.569-38.509 67.172-57.76 118.81-57.76 56.013 0 99.993 29.536 131.938 88.614s47.918 155.571 47.918 289.476z" />
<glyph unicode="&#xe901;" glyph-name="1" d="M339.657 895.941l0.060 3.259h-129.935l0.071-3.269 13.196-609h105.391l0.058 3.142 11.158 605.868zM342.689 129.574l-0.029 0.032c-17.7 17.702-39.754 26.534-65.935 26.534-25.761 0-47.389-8.845-64.651-26.566-17.218-17.67-25.852-39.040-25.852-63.936 0-25.312 8.62-47.11 25.823-65.216l0.028-0.032c17.262-17.715 38.89-26.566 64.651-26.566 26.181 0 48.234 8.838 65.935 26.541h0.001l0.056 0.058c17.203 18.106 25.823 39.904 25.823 65.216 0 24.896-8.634 46.266-25.851 63.936zM812.275 895.941l0.058 3.259h-129.935l0.070-3.269 13.196-609h105.391l0.058 3.142 11.162 605.868zM684.66 0.422l0.028-0.032c17.263-17.715 38.89-26.566 64.651-26.566 26.182 0 48.033 8.838 65.304 26.566 17.651 18.106 26.509 39.91 26.509 65.248 0 24.915-8.864 46.291-26.522 63.955-17.269 17.715-39.116 26.547-65.291 26.547-25.761 0-47.388-8.845-64.651-26.566-17.217-17.67-25.852-39.040-25.852-63.936 0-25.312 8.62-47.11 25.823-65.216z" />
<glyph unicode="&#xe902;" glyph-name="2" d="M302.649 25.215l2.027-1.009 1.159 1.946 159.33 267.874h533.182v77.892h-487.273l66.619 112.154h420.654v77.394h-374.745l145.686 245.13-69.383 34.692-1.161-1.943-165.834-277.88h-528.681v-77.394h482.256l-67.1-112.154h-415.156v-77.892h368.735l-139.68-234.125 69.366-34.684z" />
<glyph unicode="&#xe903;" glyph-name="3" d="M363.855 20.084l1.676 1.75-1.819 1.601c-45.419 40.020-83.18 79.853-113.304 119.487-30.070 39.568-52.702 83.247-67.899 131.049-14.87 48.095-22.331 105.295-22.331 171.641 0 49.84 4.127 94.228 12.36 133.18 8.553 38.962 21.217 74.568 37.981 106.83 16.778 32.29 37.836 63.010 63.184 92.16 25.704 29.512 55.707 59.517 90.017 90.014l1.804 1.603-45.164 47.218-1.666-1.358c-51.657-42.090-96.005-85.317-133.031-129.686l-0.007-0.007c-36.771-44.446-65.070-94.010-84.892-148.681l-0.004-0.011c-19.523-54.729-29.256-118.496-29.256-191.261s9.733-136.532 29.256-191.26l0.004-0.009c19.822-54.672 48.121-104.239 84.892-148.68l0.007-0.009c37.026-44.367 81.374-87.594 133.031-129.685l1.666-1.359 43.496 45.475zM691.661 871.143l-1.671-1.745 1.806-1.603c34.309-30.496 64.149-60.498 89.53-90.005l0.019-0.020c25.661-29.148 46.876-59.864 63.651-92.149 16.761-32.259 29.268-67.862 37.502-106.821l0.005-0.018c8.55-38.947 12.833-83.332 12.833-133.171 0-66.346-7.619-123.546-22.803-171.636l-0.005-0.009c-14.881-47.802-37.353-91.476-67.421-131.044-30.124-39.633-67.887-79.467-113.306-119.487l-1.815-1.601 1.676-1.75 43.492-45.475 1.666 1.359c51.656 42.086 95.846 85.313 132.557 129.685 37.092 44.446 65.392 94.013 84.899 148.689 19.842 54.728 29.738 118.5 29.738 191.269s-9.896 136.541-29.738 191.272c-19.507 54.674-47.807 104.239-84.899 148.685-36.706 44.37-80.896 87.599-132.557 129.689l-1.666 1.358-43.492-45.473z" />
<glyph unicode="&#xe904;" glyph-name="4" d="M371.385 111.173l1.46-0.657 0.7 1.444 247.537 509.933 318.699-196.506-238.433-147.248 32.797-44.69 259.217 162.225v60.109l-0.783 0.482-347.684 215.025 33.607 68.911-48.366 23.822-0.723-1.495-252.958-521.451-298.365 184.303 238.323 146.168-29.202 46.506-262.71-162.271v-60.112l328.138-204.324-28.891-58.807 47.637-21.365z" />
<glyph unicode="&#xe905;" glyph-name="5" d="M96.193-19.988v-2.438h255.438v76.39h-171.042v782.317h171.042v77.394h-255.438v-933.664zM933.127 911.238v2.438h-255.439v-77.394h171.042v-782.815h-171.042v-75.893h255.439v933.664z" />
<glyph unicode="&#xe906;" glyph-name="6" d="M165.191 322.241l-2.611-1.143 1.151-2.611 36.16-81.96 2.607 1.155 641.176 284.905v97.636l-1.684 0.752-642.098 285.897-37.311-84.572 571.395-250.601-568.784-249.456zM186.78 51.507l-2.595-1.138 36.694-84.582 2.622 1.161 642.695 285.321-1.183 2.611-35.59 78.41-2.571-1.132-640.072-280.65z" />
<glyph unicode="&#xe907;" glyph-name="7" d="M849.994 318.487l1.149 2.611-571.393 250.599 571.393 250.601-1.149 2.608-36.159 81.964-643.786-286.649v-97.636l643.786-286.060 36.159 81.96zM828.41 47.77l1.132 2.6-645.241 282.92-1.161-2.56-35.611-78.461 645.319-286.481 1.138 2.628 34.423 79.354z" />
<glyph unicode="&#xe908;" glyph-name="8" d="M378.888 785.584l-0.010 0.005c-31.584 15.615-69.1 23.371-112.462 23.371-42.706 0-82.799-8.473-120.251-25.43-37.513-16.635-71.594-43.15-102.258-79.454l-1.769-2.095 67.2-49.28 1.535 1.906c21.503 26.706 45.18 45.856 71.005 57.563v0l0.026 0.012c25.973 12.121 51.162 18.139 75.587 18.139 34.966 0 64.018-7.959 87.312-23.716 23.063-15.601 34.583-37.891 34.583-67.196 0-22.613-6.155-41.455-18.343-56.69-12.443-15.553-27.848-30.102-46.242-43.639-18.611-13.344-37.216-27.913-55.816-43.705-18.801-15.963-34.398-35.287-46.793-57.948-12.872-22.89-19.226-51.533-19.226-85.788v-44.045h93.866v38.793c0 28.682 6.391 51.935 18.969 69.952l0.018 0.027c12.429 18.298 27.97 34.189 46.643 47.675l0.018 0.013c18.574 13.667 37.321 27.86 56.243 42.577 19.16 14.902 35.123 32.997 47.885 54.266l0.010 0.016c12.904 21.865 19.26 49.837 19.26 83.746 0 28.197-8.397 54.768-25.111 79.664-16.738 25.282-40.735 45.688-71.878 61.26zM998.907 535.959v2.56h-468.741l-0.707-0.58-98.49-80.684h567.938v78.704zM998.907 336.937v2.56h-631.075v-81.792h631.075v79.232zM295.008 78.336l0.023 0.026c14.121 14.479 21.207 31.928 21.207 52.198 0 19.937-7.098 37.038-21.23 51.174-14.16 14.157-31.803 21.228-52.748 21.228-20.273 0-37.395-7.091-51.195-21.253-13.774-14.136-20.682-31.232-20.682-51.149 0-20.25 6.896-37.688 20.659-52.178l0.023-0.020c13.8-14.162 30.922-21.253 51.195-21.253 20.945 0 38.587 7.071 52.748 21.228z" />
<glyph unicode="&#xe909;" glyph-name="9" d="M354.087 917.99v-66.016c-24.34 0-46.512-2.501-66.516-7.502-19.672-4.668-35.009-12.837-46.011-24.506s-15.504-27.673-13.504-48.011l21.005-205.050c4.334-42.010-1.667-73.351-18.004-94.023-16.004-20.673-41.177-34.175-75.519-40.509 35.009-6.334 60.515-19.339 76.519-39.010 16.004-19.339 21.672-51.18 17.004-95.525l-21.005-205.049c-2-20.67 2.501-36.844 13.504-48.513s26.34-19.836 46.011-24.508c19.671-4.667 41.844-6.997 66.516-6.997v-66.019c-37.342 0-72.351 4.501-105.026 13.502-32.674 9.006-58.348 24.839-77.018 47.514-18.671 22.338-25.673 54.014-21.005 95.022l20.005 190.045c2.667 22.674 0.5 41.847-6.501 57.515-6.668 16.004-21.339 28.009-44.011 36.011-22.339 8.333-55.847 12.503-100.524 12.503v67.018c44.678 0 78.186 3.998 100.524 12.001 22.672 8.002 37.343 19.838 44.011 35.509 7.002 15.67 9.169 34.842 6.501 57.514l-20.005 191.047c-4.334 41.010 2.667 72.684 21.005 95.023 18.671 22.672 44.344 38.509 77.018 47.512s67.683 13.503 105.026 13.503zM651.010 917.99c37.347 0 72.353-4.501 105.028-13.503s58.348-24.839 77.019-47.512c18.671-22.339 25.673-54.013 21.002-95.023l-20.002-191.047c-3.667-34.008 5.169-60.015 26.507-78.019s62.849-27.005 124.528-27.005v-67.018c-61.347 0-102.858-9.167-124.528-27.507-21.338-18.339-30.174-44.51-26.507-78.521l20.002-190.045c4.335-41.009-2.833-72.684-21.504-95.022-18.339-22.674-43.842-38.507-76.517-47.514-32.675-9.001-67.682-13.502-105.028-13.502v66.019c24.342 0 46.348 2.331 66.019 6.997 20.002 4.671 35.508 12.839 46.509 24.508 11.006 11.669 15.506 27.843 13.507 48.513l-21.007 205.049c-4.667 44.344 1.331 76.186 18.003 95.525 17.003 19.339 45.846 32.007 86.523 38.010-39.346 6.666-67.686 20.339-85.021 41.009-17.34 21.005-23.84 52.513-19.505 94.523l21.007 205.050c1.999 20.338-2.501 36.342-13.507 48.011-11.001 11.67-26.336 19.838-46.012 24.506-19.671 5.001-41.843 7.502-66.516 7.502v66.016z" />
<glyph unicode="&#xe90a;" glyph-name="10" d="M26.383 494.512v-2.438h795.913l51.283-56.076-51.283-56.076h-795.913v-77.894h736.375c-11.571-6.949-21.27-14.039-29.072-21.28v0l-0.029-0.029c-9.045-8.714-17.428-17.593-25.142-26.648l-64.195-69.847 1.921-1.638 63.829-54.565 275.105 307.978-1.448 1.624-273.657 306.353-65.751-56.205 64.195-69.844c7.714-9.054 16.096-17.936 25.142-26.646v0l0.029-0.030c7.802-7.244 17.501-14.335 29.072-21.282h-736.375v-75.456z" />
<glyph unicode="&#xe90b;" glyph-name="11" d="M1001.047 583.529v1.506h-984.693v-47.802h984.693v46.296zM1001.047 466.148v1.506h-984.693v-47.802h984.693v46.296zM1001.047 349.075v1.506h-984.693v-48.113h984.693v46.607z" />
<glyph unicode="&#xe90c;" glyph-name="account_tree" d="M640 149.333v42.667h-85.333c-23.467 0-43.554 8.354-60.267 25.067s-25.067 36.8-25.067 60.267v341.333h-85.333v-42.667c0-23.467-8.355-43.554-25.067-60.267s-36.8-25.067-60.267-25.067h-128c-23.467 0-43.555 8.354-60.267 25.067s-25.067 36.8-25.067 60.267v170.667c0 23.467 8.355 43.555 25.067 60.267s36.8 25.067 60.267 25.067h128c23.467 0 43.555-8.355 60.267-25.067s25.067-36.8 25.067-60.267v-42.667h256v42.667c0 23.467 8.354 43.555 25.067 60.267s36.8 25.067 60.267 25.067h128c23.467 0 43.554-8.355 60.267-25.067s25.067-36.8 25.067-60.267v-170.667c0-23.467-8.354-43.554-25.067-60.267s-36.8-25.067-60.267-25.067h-128c-23.467 0-43.554 8.354-60.267 25.067s-25.067 36.8-25.067 60.267v42.667h-85.333v-341.333h85.333v42.667c0 23.467 8.354 43.554 25.067 60.267s36.8 25.067 60.267 25.067h128c23.467 0 43.554-8.354 60.267-25.067s25.067-36.8 25.067-60.267v-170.667c0-23.467-8.354-43.554-25.067-60.267s-36.8-25.067-60.267-25.067h-128c-23.467 0-43.554 8.354-60.267 25.067s-25.067 36.8-25.067 60.267z" />
<glyph unicode="&#xe90d;" glyph-name="alarm" d="M554.662 422.4v153.599c0 12.089-4.087 22.222-12.267 30.4s-18.313 12.267-30.4 12.267c-12.087 0-22.221-4.089-30.4-12.267s-12.267-18.311-12.267-30.4v-169.599c0-5.692 1.067-11.2 3.2-16.533s5.333-10.133 9.6-14.4l119.467-119.467c7.821-7.825 17.779-11.733 29.867-11.733s22.046 3.908 29.867 11.733c7.821 7.821 11.733 17.775 11.733 29.867 0 12.087-3.913 22.042-11.733 29.867l-106.667 106.667zM511.996 21.333c-53.333 0-103.289 10.133-149.867 30.4s-87.111 47.642-121.6 82.133c-34.489 34.487-61.867 75.021-82.133 121.6-20.267 46.575-30.4 96.533-30.4 149.867s10.133 103.287 30.4 149.866c20.267 46.577 47.645 87.111 82.133 121.6s75.023 61.867 121.6 82.133c46.578 20.267 96.533 30.4 149.867 30.4s103.287-10.133 149.867-30.4c46.579-20.267 87.113-47.645 121.6-82.133s61.867-75.023 82.133-121.6c20.267-46.578 30.4-96.532 30.4-149.866s-10.133-103.292-30.4-149.867c-20.267-46.579-47.646-87.113-82.133-121.6-34.487-34.492-75.021-61.867-121.6-82.133s-96.533-30.4-149.867-30.4zM87.462 648.532c-7.822 7.822-11.733 17.777-11.733 29.867s3.911 22.044 11.733 29.867l121.6 121.6c7.823 7.822 17.778 11.733 29.867 11.733s22.045-3.911 29.867-11.733c7.823-7.823 11.733-17.778 11.733-29.867s-3.911-22.045-11.733-29.867l-121.6-121.6c-7.822-7.823-17.777-11.733-29.867-11.733s-22.044 3.911-29.867 11.733zM936.529 648.532c-7.821-7.823-17.779-11.733-29.867-11.733s-22.046 3.911-29.867 11.733l-121.6 121.6c-7.821 7.822-11.733 17.777-11.733 29.867s3.913 22.044 11.733 29.867c7.821 7.822 17.779 11.733 29.867 11.733s22.046-3.911 29.867-11.733l121.6-121.6c7.821-7.823 11.733-17.778 11.733-29.867s-3.913-22.045-11.733-29.867z" />
<glyph unicode="&#xe90e;" glyph-name="alternate_email" d="M512 21.333c-59.021 0-114.489 11.2-166.4 33.6s-97.067 52.8-135.467 91.2c-38.4 38.4-68.8 83.554-91.2 135.467s-33.6 107.379-33.6 166.4c0 59.021 11.2 114.489 33.6 166.4s52.8 97.067 91.2 135.467c38.4 38.4 83.555 68.8 135.467 91.2s107.379 33.6 166.4 33.6c59.021 0 114.487-11.2 166.4-33.6s97.067-52.8 135.467-91.2c38.4-38.4 68.8-83.555 91.2-135.467s33.6-107.379 33.6-166.4v-61.867c0-41.954-14.4-77.687-43.2-107.2s-64.179-44.267-106.133-44.267c-24.887 0-48.354 5.333-70.4 16s-40.533 25.954-55.467 45.867c-20.621-20.621-43.913-36.087-69.867-46.4s-53.154-15.467-81.6-15.467c-59.021 0-109.333 20.8-150.933 62.4s-62.4 91.913-62.4 150.933c0 59.021 20.8 109.333 62.4 150.933s91.913 62.4 150.933 62.4c59.021 0 109.333-20.8 150.933-62.4s62.4-91.913 62.4-150.933v-61.867c0-18.487 6.046-34.133 18.133-46.933s27.379-19.2 45.867-19.2c18.487 0 33.779 6.4 45.867 19.2s18.133 28.446 18.133 46.933v61.867c0 95.289-33.067 176-99.2 242.133s-146.846 99.2-242.133 99.2c-95.289 0-176-33.067-242.133-99.2s-99.2-146.845-99.2-242.133c0-95.287 33.067-176 99.2-242.133s146.845-99.2 242.133-99.2h170.667c12.087 0 22.221-4.087 30.4-12.267s12.267-18.313 12.267-30.4c0-12.087-4.087-22.221-12.267-30.4s-18.313-12.267-30.4-12.267h-170.667zM512 320c35.554 0 65.779 12.446 90.667 37.333s37.333 55.113 37.333 90.667c0 35.554-12.446 65.779-37.333 90.667s-55.113 37.333-90.667 37.333-65.779-12.445-90.667-37.333c-24.889-24.887-37.333-55.113-37.333-90.667s12.445-65.779 37.333-90.667c24.887-24.887 55.113-37.333 90.667-37.333z" />
<glyph unicode="&#xe90f;" glyph-name="bar_chart" d="M768 106.667c-23.467 0-43.554 8.354-60.267 25.067s-25.067 36.8-25.067 60.267v128c0 23.467 8.354 43.554 25.067 60.267s36.8 25.067 60.267 25.067c23.467 0 43.554-8.354 60.267-25.067s25.067-36.8 25.067-60.267v-128c0-23.467-8.354-43.554-25.067-60.267s-36.8-25.067-60.267-25.067zM512 106.667c-23.467 0-43.554 8.354-60.267 25.067s-25.067 36.8-25.067 60.267v512c0 23.467 8.354 43.555 25.067 60.267s36.8 25.067 60.267 25.067c23.467 0 43.554-8.355 60.267-25.067s25.067-36.8 25.067-60.267v-512c0-23.467-8.354-43.554-25.067-60.267s-36.8-25.067-60.267-25.067zM256 106.667c-23.467 0-43.555 8.354-60.267 25.067s-25.067 36.8-25.067 60.267v298.667c0 23.467 8.355 43.555 25.067 60.267s36.8 25.067 60.267 25.067c23.467 0 43.555-8.355 60.267-25.067s25.067-36.8 25.067-60.267v-298.667c0-23.467-8.355-43.554-25.067-60.267s-36.8-25.067-60.267-25.067z" />
<glyph unicode="&#xe910;" glyph-name="close" d="M512 388.267l-209.065-209.067c-7.822-7.825-17.778-11.733-29.867-11.733s-22.045 3.908-29.867 11.733c-7.822 7.821-11.733 17.775-11.733 29.867 0 12.087 3.911 22.042 11.733 29.867l209.065 209.067-209.065 209.065c-7.822 7.822-11.733 17.778-11.733 29.867s3.911 22.045 11.733 29.867c7.822 7.822 17.778 11.733 29.867 11.733s22.045-3.911 29.867-11.733l209.065-209.065 209.067 209.065c7.825 7.822 17.779 11.733 29.867 11.733 12.092 0 22.046-3.911 29.867-11.733 7.825-7.822 11.733-17.778 11.733-29.867s-3.908-22.045-11.733-29.867l-209.067-209.065 209.067-209.067c7.825-7.825 11.733-17.779 11.733-29.867 0-12.092-3.908-22.046-11.733-29.867-7.821-7.825-17.775-11.733-29.867-11.733-12.087 0-22.042 3.908-29.867 11.733l-209.067 209.067z" />
<glyph unicode="&#xe911;" glyph-name="dark_mode" d="M512 64c-107.378 0-198.222 37.158-272.533 111.467-74.311 74.313-111.467 165.158-111.467 272.533 0 98.135 32 183.291 96 255.469s145.778 114.311 245.333 126.4c9.246 1.422 17.421 0.177 24.533-3.733s12.8-9.067 17.067-15.467c4.267-6.4 6.579-13.867 6.933-22.4s-2.313-16.711-8-24.533c-12.087-18.489-21.154-38.045-27.2-58.667s-9.067-42.311-9.067-65.067c0-64 22.4-118.402 67.2-163.202s99.2-67.2 163.2-67.2c22.046 0 43.913 3.2 65.6 9.6s41.067 15.292 58.133 26.667c7.821 4.979 15.821 7.292 24 6.933 8.179-0.354 15.467-2.308 21.867-5.867 7.113-3.554 12.621-8.887 16.533-16 3.913-7.108 5.154-15.642 3.733-25.6-9.954-98.133-51.733-179.554-125.333-244.267-73.6-64.708-159.113-97.067-256.533-97.067z" />
<glyph unicode="&#xe912;" glyph-name="east" d="M248.533 490.667h647.467c12.087 0 22.221-4.087 30.4-12.267 8.179-8.175 12.267-18.308 12.267-30.4 0-12.087-4.087-22.221-12.267-30.4-8.179-8.175-18.313-12.267-30.4-12.267h-647.467l165.333-166.4c7.822-7.821 11.911-17.6 12.267-29.333s-3.733-21.867-12.267-30.4c-7.822-7.821-17.778-11.733-29.867-11.733s-22.045 3.913-29.867 11.733l-238.933 238.933c-4.267 4.267-7.289 8.892-9.067 13.867-1.778 4.979-2.667 10.313-2.667 16 0 5.692 0.889 11.025 2.667 16 1.778 4.979 4.8 9.6 9.067 13.867l238.933 238.935c7.822 7.822 17.6 11.733 29.333 11.733s21.867-3.911 30.4-11.733c8.533-8.533 12.8-18.667 12.8-30.4s-4.267-21.867-12.8-30.4l-165.333-165.335z" />
<glyph unicode="&#xe913;" glyph-name="east-1" d="M775.467 405.333h-647.467c-12.089 0-22.222 4.087-30.4 12.267-8.178 8.175-12.267 18.308-12.267 30.4 0 12.087 4.089 22.221 12.267 30.4 8.178 8.175 18.311 12.267 30.4 12.267h647.467l-165.333 166.398c-7.821 7.822-11.913 17.6-12.267 29.333s3.733 21.867 12.267 30.4c7.821 7.822 17.779 11.733 29.867 11.733s22.046-3.911 29.867-11.733l238.933-238.931c4.267-4.267 7.287-8.892 9.067-13.867 1.779-4.979 2.667-10.313 2.667-16 0-5.692-0.887-11.025-2.667-16-1.779-4.979-4.8-9.6-9.067-13.867l-238.933-238.933c-7.821-7.825-17.6-11.733-29.333-11.733s-21.867 3.908-30.4 11.733c-8.533 8.533-12.8 18.667-12.8 30.4s4.267 21.867 12.8 30.4l165.333 165.333z" />
<glyph unicode="&#xe914;" glyph-name="event_note" d="M213.333 21.333c-23.467 0-43.555 8.354-60.267 25.067s-25.067 36.8-25.067 60.267v597.333c0 23.467 8.355 43.555 25.067 60.267s36.8 25.067 60.267 25.067h42.667v42.667c0 12.089 4.089 22.222 12.267 30.4s18.311 12.267 30.4 12.267c12.089 0 22.222-4.089 30.4-12.267s12.267-18.311 12.267-30.4v-42.667h341.333v42.667c0 12.089 4.087 22.222 12.267 30.4s18.313 12.267 30.4 12.267c12.087 0 22.221-4.089 30.4-12.267s12.267-18.311 12.267-30.4v-42.667h42.667c23.467 0 43.554-8.355 60.267-25.067s25.067-36.8 25.067-60.267v-597.333c0-23.467-8.354-43.554-25.067-60.267s-36.8-25.067-60.267-25.067h-597.333zM213.333 106.667h597.333v426.667h-597.333v-426.667zM341.333 362.667c-12.089 0-22.222 4.087-30.4 12.267s-12.267 18.313-12.267 30.4c0 12.087 4.089 22.221 12.267 30.4s18.311 12.267 30.4 12.267h341.333c12.087 0 22.221-4.087 30.4-12.267s12.267-18.313 12.267-30.4c0-12.087-4.087-22.221-12.267-30.4s-18.313-12.267-30.4-12.267h-341.333zM341.333 192c-12.089 0-22.222 4.087-30.4 12.267s-12.267 18.313-12.267 30.4c0 12.087 4.089 22.221 12.267 30.4s18.311 12.267 30.4 12.267h213.333c12.087 0 22.221-4.087 30.4-12.267s12.267-18.313 12.267-30.4c0-12.087-4.087-22.221-12.267-30.4s-18.313-12.267-30.4-12.267h-213.333z" />
<glyph unicode="&#xe915;" glyph-name="expand_less" d="M512 500.267l-166.398-166.4c-7.822-7.825-17.778-11.733-29.867-11.733s-22.045 3.908-29.867 11.733c-7.822 7.821-11.733 17.775-11.733 29.867 0 12.087 3.911 22.042 11.733 29.867l196.265 196.266c4.267 4.267 8.892 7.289 13.867 9.067 4.979 1.777 10.313 2.667 16 2.667 5.692 0 11.025-0.889 16-2.667 4.979-1.778 9.6-4.8 13.867-9.067l196.267-196.266c7.825-7.825 11.733-17.779 11.733-29.867 0-12.092-3.908-22.046-11.733-29.867-7.821-7.825-17.775-11.733-29.867-11.733-12.087 0-22.042 3.908-29.867 11.733l-166.4 166.4z" />
<glyph unicode="&#xe916;" glyph-name="expand_more" d="M512 322.133c-5.687 0-11.021 0.887-16 2.667-4.975 1.775-9.6 4.8-13.867 9.067l-196.265 196.267c-7.822 7.821-11.733 17.777-11.733 29.866s3.911 22.044 11.733 29.867c7.822 7.822 17.778 11.733 29.867 11.733s22.045-3.911 29.867-11.733l166.398-166.399 166.4 166.399c7.825 7.822 17.779 11.733 29.867 11.733 12.092 0 22.046-3.911 29.867-11.733 7.825-7.823 11.733-17.778 11.733-29.867s-3.908-22.045-11.733-29.866l-196.267-196.267c-4.267-4.267-8.887-7.292-13.867-9.067-4.975-1.779-10.308-2.667-16-2.667z" />
<glyph unicode="&#xe917;" glyph-name="finance" d="M213.333 64c-23.467 0-43.555 8.354-60.267 25.067s-25.067 36.8-25.067 60.267v640c0 12.089 4.089 22.222 12.267 30.4s18.311 12.267 30.4 12.267c12.089 0 22.222-4.089 30.4-12.267s12.267-18.311 12.267-30.4v-640h640c12.087 0 22.221-4.087 30.4-12.267s12.267-18.313 12.267-30.4c0-12.087-4.087-22.221-12.267-30.4s-18.313-12.267-30.4-12.267h-640zM298.667 192c-12.089 0-22.222 4.087-30.4 12.267s-12.267 18.313-12.267 30.4v298.667c0 12.089 4.089 22.222 12.267 30.4s18.311 12.267 30.4 12.267h85.333c12.089 0 22.222-4.089 30.4-12.267s12.267-18.311 12.267-30.4v-298.667c0-12.087-4.089-22.221-12.267-30.4s-18.311-12.267-30.4-12.267h-85.333zM512 192c-12.087 0-22.221 4.087-30.4 12.267s-12.267 18.313-12.267 30.4v512c0 12.089 4.087 22.222 12.267 30.4s18.313 12.267 30.4 12.267h85.333c12.087 0 22.221-4.089 30.4-12.267s12.267-18.311 12.267-30.4v-512c0-12.087-4.087-22.221-12.267-30.4s-18.313-12.267-30.4-12.267h-85.333zM725.333 192c-12.087 0-22.221 4.087-30.4 12.267s-12.267 18.313-12.267 30.4v128c0 12.087 4.087 22.221 12.267 30.4s18.313 12.267 30.4 12.267h85.333c12.087 0 22.221-4.087 30.4-12.267s12.267-18.313 12.267-30.4v-128c0-12.087-4.087-22.221-12.267-30.4s-18.313-12.267-30.4-12.267h-85.333z" />
<glyph unicode="&#xe918;" glyph-name="home" d="M170.667 149.333v384c0 13.511 3.022 26.311 9.067 38.4s14.4 22.045 25.067 29.867l256 192c14.933 11.378 32 17.067 51.2 17.067s36.267-5.689 51.2-17.067l256-192c10.667-7.822 19.021-17.778 25.067-29.867s9.067-24.889 9.067-38.4v-384c0-23.467-8.354-43.554-25.067-60.267s-36.8-25.067-60.267-25.067h-128c-12.087 0-22.221 4.087-30.4 12.267s-12.267 18.313-12.267 30.4v213.333c0 12.087-4.087 22.221-12.267 30.4s-18.313 12.267-30.4 12.267h-85.333c-12.087 0-22.221-4.087-30.4-12.267s-12.267-18.313-12.267-30.4v-213.333c0-12.087-4.089-22.221-12.267-30.4s-18.311-12.267-30.4-12.267h-128c-23.467 0-43.555 8.354-60.267 25.067s-25.067 36.8-25.067 60.267z" />
<glyph unicode="&#xe919;" glyph-name="instant_mix" d="M256 106.667c-12.089 0-22.222 4.087-30.4 12.267s-12.267 18.313-12.267 30.4v256h-42.667c-12.089 0-22.222 4.087-30.4 12.267s-12.267 18.313-12.267 30.4c0 12.087 4.089 22.221 12.267 30.4s18.311 12.267 30.4 12.267h170.667c12.089 0 22.222-4.087 30.4-12.267s12.267-18.313 12.267-30.4c0-12.087-4.089-22.221-12.267-30.4s-18.311-12.267-30.4-12.267h-42.667v-256c0-12.087-4.089-22.221-12.267-30.4s-18.311-12.267-30.4-12.267zM256 576c-12.089 0-22.222 4.089-30.4 12.267s-12.267 18.311-12.267 30.4v128c0 12.089 4.089 22.222 12.267 30.4s18.311 12.267 30.4 12.267c12.089 0 22.222-4.089 30.4-12.267s12.267-18.311 12.267-30.4v-128c0-12.089-4.089-22.222-12.267-30.4s-18.311-12.267-30.4-12.267zM426.667 576c-12.089 0-22.222 4.089-30.4 12.267s-12.267 18.311-12.267 30.4c0 12.089 4.089 22.222 12.267 30.4s18.311 12.267 30.4 12.267h42.667v85.333c0 12.089 4.087 22.222 12.267 30.4s18.313 12.267 30.4 12.267c12.087 0 22.221-4.089 30.4-12.267s12.267-18.311 12.267-30.4v-85.333h42.667c12.087 0 22.221-4.089 30.4-12.267s12.267-18.311 12.267-30.4c0-12.089-4.087-22.222-12.267-30.4s-18.313-12.267-30.4-12.267h-170.667zM512 106.667c-12.087 0-22.221 4.087-30.4 12.267s-12.267 18.313-12.267 30.4v298.667c0 12.087 4.087 22.221 12.267 30.4s18.313 12.267 30.4 12.267c12.087 0 22.221-4.087 30.4-12.267s12.267-18.313 12.267-30.4v-298.667c0-12.087-4.087-22.221-12.267-30.4s-18.313-12.267-30.4-12.267zM768 106.667c-12.087 0-22.221 4.087-30.4 12.267s-12.267 18.313-12.267 30.4v85.333h-42.667c-12.087 0-22.221 4.087-30.4 12.267s-12.267 18.313-12.267 30.4c0 12.087 4.087 22.221 12.267 30.4s18.313 12.267 30.4 12.267h170.667c12.087 0 22.221-4.087 30.4-12.267s12.267-18.313 12.267-30.4c0-12.087-4.087-22.221-12.267-30.4s-18.313-12.267-30.4-12.267h-42.667v-85.333c0-12.087-4.087-22.221-12.267-30.4s-18.313-12.267-30.4-12.267zM768 405.333c-12.087 0-22.221 4.087-30.4 12.267s-12.267 18.313-12.267 30.4v298.667c0 12.089 4.087 22.222 12.267 30.4s18.313 12.267 30.4 12.267c12.087 0 22.221-4.089 30.4-12.267s12.267-18.311 12.267-30.4v-298.667c0-12.087-4.087-22.221-12.267-30.4s-18.313-12.267-30.4-12.267z" />
<glyph unicode="&#xe91a;" glyph-name="mail" d="M170.667 106.667c-23.467 0-43.555 8.354-60.267 25.067s-25.067 36.8-25.067 60.267v512c0 23.467 8.355 43.555 25.067 60.267s36.8 25.067 60.267 25.067h682.667c23.467 0 43.554-8.355 60.267-25.067s25.067-36.8 25.067-60.267v-512c0-23.467-8.354-43.554-25.067-60.267s-36.8-25.067-60.267-25.067h-682.667zM512 412.8c3.554 0 7.287 0.533 11.2 1.6s7.646 2.667 11.2 4.8l301.867 188.8c5.687 3.555 9.954 8 12.8 13.333s4.267 11.2 4.267 17.6c0 14.222-6.046 24.889-18.133 32s-24.533 6.755-37.333-1.067l-285.867-179.2-285.867 179.2c-12.8 7.822-25.245 8-37.333 0.533s-18.133-17.955-18.133-31.467c0-7.111 1.422-13.333 4.267-18.667s7.111-9.422 12.8-12.267l301.867-188.8c3.554-2.133 7.287-3.733 11.2-4.8s7.646-1.6 11.2-1.6z" />
<glyph unicode="&#xe91b;" glyph-name="map" d="M612.267 73.6l-228.267 80-198.4-76.8c-7.111-2.846-14.045-3.733-20.8-2.667s-12.978 3.379-18.667 6.933c-5.689 3.554-10.133 8.354-13.333 14.4s-4.8 12.979-4.8 20.8v598.4c0 9.245 2.667 17.422 8 24.533s12.622 12.445 21.867 16l198.4 67.2c4.267 1.422 8.711 2.489 13.333 3.2s9.422 1.067 14.4 1.067c4.978 0 9.778-0.355 14.4-1.067s9.067-1.778 13.333-3.2l228.267-80 198.4 76.8c7.113 2.845 14.046 3.733 20.8 2.667s12.979-3.378 18.667-6.933c5.687-3.555 10.133-8.355 13.333-14.4s4.8-12.978 4.8-20.8v-598.4c0-9.246-2.667-17.421-8-24.533s-12.621-12.446-21.867-16l-198.4-67.2c-4.267-1.421-8.713-2.487-13.333-3.2s-9.421-1.067-14.4-1.067c-4.979 0-9.779 0.354-14.4 1.067s-9.067 1.779-13.333 3.2zM597.333 168.533v499.2l-170.667 59.733v-499.2l170.667-59.733z" />
<glyph unicode="&#xe91c;" glyph-name="news" d="M213.333 64c-23.467 0-43.555 8.354-60.267 25.067s-25.067 36.8-25.067 60.267v597.333c0 23.467 8.355 43.555 25.067 60.267s36.8 25.067 60.267 25.067h434.133c11.379 0 22.221-2.133 32.533-6.4s19.379-10.311 27.2-18.133l164.267-164.267c7.821-7.822 13.867-16.889 18.133-27.2s6.4-21.155 6.4-32.533v-434.133c0-23.467-8.354-43.554-25.067-60.267s-36.8-25.067-60.267-25.067h-597.333zM640 746.667v-128c0-12.089 4.087-22.222 12.267-30.4s18.313-12.267 30.4-12.267h128l-170.667 170.667zM682.667 234.667c12.087 0 22.221 4.087 30.4 12.267s12.267 18.313 12.267 30.4c0 12.087-4.087 22.221-12.267 30.4s-18.313 12.267-30.4 12.267h-341.333c-12.089 0-22.222-4.087-30.4-12.267s-12.267-18.313-12.267-30.4c0-12.087 4.089-22.221 12.267-30.4s18.311-12.267 30.4-12.267h341.333zM469.333 576c12.087 0 22.221 4.089 30.4 12.267s12.267 18.311 12.267 30.4c0 12.089-4.087 22.222-12.267 30.4s-18.313 12.267-30.4 12.267h-128c-12.089 0-22.222-4.089-30.4-12.267s-12.267-18.311-12.267-30.4c0-12.089 4.089-22.222 12.267-30.4s18.311-12.267 30.4-12.267h128zM682.667 405.333c12.087 0 22.221 4.087 30.4 12.267s12.267 18.313 12.267 30.4c0 12.087-4.087 22.221-12.267 30.4s-18.313 12.267-30.4 12.267h-341.333c-12.089 0-22.222-4.087-30.4-12.267s-12.267-18.313-12.267-30.4c0-12.087 4.089-22.221 12.267-30.4s18.311-12.267 30.4-12.267h341.333z" />
<glyph unicode="&#xe91d;" glyph-name="north" d="M512 21.333c-12.087 0-22.221 4.087-30.4 12.267-8.175 8.175-12.267 18.308-12.267 30.4v647.465l-166.398-165.333c-7.822-7.822-17.6-11.911-29.333-12.267s-21.867 3.733-30.4 12.267c-7.822 7.822-11.733 17.778-11.733 29.867s3.911 22.045 11.733 29.867l238.931 238.933c4.267 4.267 8.892 7.289 13.867 9.067 4.979 1.778 10.313 2.667 16 2.667 5.692 0 11.025-0.889 16-2.667 4.979-1.778 9.6-4.8 13.867-9.067l238.933-238.933c7.825-7.822 11.733-17.6 11.733-29.333s-3.908-21.867-11.733-30.4c-8.533-8.533-18.667-12.798-30.4-12.798s-21.867 4.265-30.4 12.798l-165.333 165.333v-647.465c0-12.092-4.087-22.225-12.267-30.4-8.175-8.179-18.308-12.267-30.4-12.267z" />
<glyph unicode="&#xe91e;" glyph-name="north_east" d="M725.333 601.6l-465.065-465.067c-7.822-7.821-17.778-11.733-29.867-11.733s-22.045 3.913-29.867 11.733c-7.822 7.821-11.733 17.779-11.733 29.867s3.911 22.046 11.733 29.867l465.065 465.067h-238.933c-12.087 0-22.22 4.089-30.398 12.267s-12.267 18.311-12.267 30.4c0 12.089 4.089 22.222 12.267 30.4s18.311 12.267 30.398 12.267h341.333c12.092 0 22.225-4.089 30.4-12.267 8.179-8.178 12.267-18.311 12.267-30.4v-341.333c0-12.087-4.087-22.221-12.267-30.4-8.175-8.179-18.308-12.267-30.4-12.267-12.087 0-22.221 4.087-30.4 12.267-8.175 8.179-12.267 18.313-12.267 30.4v238.933z" />
<glyph unicode="&#xe91f;" glyph-name="north_west" d="M298.667 601.6v-238.933c0-12.087-4.089-22.221-12.267-30.4s-18.311-12.267-30.4-12.267c-12.089 0-22.222 4.087-30.4 12.267s-12.267 18.313-12.267 30.4v341.333c0 12.089 4.089 22.222 12.267 30.4s18.311 12.267 30.4 12.267h341.333c12.087 0 22.221-4.089 30.4-12.267s12.267-18.311 12.267-30.4c0-12.089-4.087-22.222-12.267-30.4s-18.313-12.267-30.4-12.267h-238.933l465.067-465.067c7.821-7.821 11.733-17.779 11.733-29.867s-3.913-22.046-11.733-29.867c-7.821-7.821-17.779-11.733-29.867-11.733s-22.046 3.913-29.867 11.733l-465.067 465.067z" />
<glyph unicode="&#xe920;" glyph-name="note" d="M256 21.333c-23.467 0-43.555 8.354-60.267 25.067s-25.067 36.8-25.067 60.267v682.667c0 23.467 8.355 43.555 25.067 60.267s36.8 25.067 60.267 25.067h306.133c11.379 0 22.221-2.133 32.533-6.4s19.379-10.311 27.2-18.133l206.933-206.933c7.821-7.822 13.867-16.889 18.133-27.2s6.4-21.155 6.4-32.533v-476.8c0-23.467-8.354-43.554-25.067-60.267s-36.8-25.067-60.267-25.067h-512zM554.667 618.667c0-12.089 4.087-22.222 12.267-30.4s18.313-12.267 30.4-12.267h170.667l-213.333 213.333v-170.667z" />
<glyph unicode="&#xe921;" glyph-name="note_stack" d="M298.667 106.667v470.4c0 23.467 8.533 43.377 25.6 59.733s37.333 24.533 60.8 24.533h468.266c23.467 0 43.554-8.356 60.267-25.067s25.067-36.8 25.067-60.267v-341.333l-213.333-213.333h-341.333c-23.467 0-43.555 8.354-60.267 25.067s-25.067 36.8-25.067 60.267zM86.4 693.333c-4.267 23.467 0.356 44.622 13.867 63.467s32 30.4 55.467 34.667l462.933 82.133c23.467 4.267 44.621-0.356 63.467-13.867s30.4-32 34.667-55.467l10.667-57.6h-343.466c-46.933 0-87.111-16.711-120.533-50.133s-50.133-73.6-50.133-120.533v-407.466c-11.377 6.4-21.155 14.933-29.333 25.6s-13.333 22.754-15.467 36.267l-82.133 462.933zM853.333 277.333h-128c-12.087 0-22.221-4.087-30.4-12.267s-12.267-18.313-12.267-30.4v-128l170.667 170.667z" />
<glyph unicode="&#xe922;" glyph-name="person" d="M512 448c-46.933 0-87.111 16.713-120.533 50.133s-50.133 73.6-50.133 120.533c0 46.933 16.711 87.111 50.133 120.533s73.6 50.133 120.533 50.133c46.933 0 87.113-16.711 120.533-50.133s50.133-73.6 50.133-120.533c0-46.933-16.713-87.113-50.133-120.533s-73.6-50.133-120.533-50.133zM170.667 192v34.133c0 24.179 6.222 46.4 18.667 66.667s28.978 35.733 49.6 46.4c44.089 22.046 88.889 38.579 134.4 49.6s91.733 16.533 138.667 16.533c46.933 0 93.154-5.513 138.667-16.533s90.313-27.554 134.4-49.6c20.621-10.667 37.154-26.133 49.6-46.4s18.667-42.487 18.667-66.667v-34.133c0-23.467-8.354-43.554-25.067-60.267s-36.8-25.067-60.267-25.067h-512c-23.467 0-43.555 8.354-60.267 25.067s-25.067 36.8-25.067 60.267z" />
<glyph unicode="&#xe923;" glyph-name="play_shapes" d="M157.872 490.667c-16.356 0-28.623 6.933-36.8 20.8s-8.356 27.909-0.533 42.131l140.8 253.867c7.822 14.222 20.267 21.333 37.333 21.333s29.511-7.111 37.333-21.333l140.799-253.867c7.825-14.222 7.646-28.265-0.533-42.131-8.175-13.867-20.442-20.8-36.8-20.8h-281.599zM298.672 64c-46.933 0-87.111 16.708-120.533 50.133-33.422 33.421-50.133 73.6-50.133 120.533s16.711 87.108 50.133 120.533c33.422 33.421 73.6 50.133 120.533 50.133s87.111-16.713 120.533-50.133c33.424-33.425 50.132-73.6 50.132-120.533s-16.708-87.113-50.132-120.533c-33.422-33.425-73.6-50.133-120.533-50.133zM597.338 64c-12.087 0-22.221 4.087-30.4 12.267-8.175 8.175-12.267 18.308-12.267 30.4v256c0 12.087 4.092 22.221 12.267 30.4 8.179 8.175 18.313 12.267 30.4 12.267h256c12.092 0 22.225-4.092 30.4-12.267 8.179-8.179 12.267-18.313 12.267-30.4v-256c0-12.092-4.087-22.225-12.267-30.4-8.175-8.179-18.308-12.267-30.4-12.267h-256zM665.604 682.665l-81.067 81.067c-7.821 7.822-11.733 17.778-11.733 29.867s3.913 22.045 11.733 29.867c7.825 7.822 17.779 11.733 29.867 11.733 12.092 0 22.046-3.911 29.867-11.733l81.067-81.067 81.067 81.067c7.825 7.822 17.779 11.733 29.867 11.733 12.092 0 22.046-3.911 29.867-11.733 7.825-7.822 11.733-17.778 11.733-29.867s-3.908-22.045-11.733-29.867l-81.067-81.067 81.067-81.067c7.825-7.822 11.733-17.778 11.733-29.867s-3.908-22.045-11.733-29.867c-7.821-7.822-17.775-11.731-29.867-11.731-12.087 0-22.042 3.909-29.867 11.731l-81.067 81.067-81.067-81.067c-7.821-7.822-17.775-11.731-29.867-11.731-12.087 0-22.042 3.909-29.867 11.731-7.821 7.822-11.733 17.778-11.733 29.867s3.913 22.045 11.733 29.867l81.067 81.067z" />
<glyph unicode="&#xe924;" glyph-name="route" d="M384 64c-46.933 0-87.111 16.713-120.533 50.133s-50.133 73.6-50.133 120.533v348.8c-24.889 9.245-45.333 24.711-61.333 46.4s-24 46.4-24 74.133c0 35.555 12.445 65.778 37.333 90.667s55.111 37.333 90.667 37.333c35.555 0 65.778-12.445 90.667-37.333s37.333-55.111 37.333-90.667c0-27.733-8-52.445-24-74.133s-36.445-37.155-61.333-46.4v-348.8c0-23.467 8.355-43.554 25.067-60.267s36.8-25.067 60.267-25.067c23.467 0 43.554 8.354 60.267 25.067s25.067 36.8 25.067 60.267v426.667c0 46.933 16.713 87.111 50.133 120.533s73.6 50.133 120.533 50.133c46.933 0 87.113-16.711 120.533-50.133s50.133-73.6 50.133-120.533v-348.8c24.887-9.246 45.333-24.713 61.333-46.4s24-46.4 24-74.133c0-35.554-12.446-65.779-37.333-90.667s-55.113-37.333-90.667-37.333c-35.554 0-65.779 12.446-90.667 37.333s-37.333 55.113-37.333 90.667c0 27.733 8 52.621 24 74.667s36.446 37.333 61.333 45.867v348.8c0 23.467-8.354 43.555-25.067 60.267s-36.8 25.067-60.267 25.067c-23.467 0-43.554-8.355-60.267-25.067s-25.067-36.8-25.067-60.267v-426.667c0-46.933-16.713-87.113-50.133-120.533s-73.6-50.133-120.533-50.133z" />
<glyph unicode="&#xe925;" glyph-name="tactic" d="M768 131.2l-38.4-38.4c-7.821-7.825-17.6-11.733-29.333-11.733s-21.867 4.267-30.4 12.8c-7.821 7.821-11.733 17.775-11.733 29.867 0 12.087 3.913 22.042 11.733 29.867l37.333 38.4-37.333 37.333c-7.821 7.821-11.733 17.6-11.733 29.333s3.913 21.867 11.733 30.4c8.533 8.533 18.667 12.8 30.4 12.8s21.867-4.267 30.4-12.8l37.333-37.333 37.333 38.4c7.821 8.533 17.6 12.8 29.333 12.8s21.867-4.267 30.4-12.8c8.533-8.533 12.8-18.667 12.8-30.4s-4.267-21.867-12.8-30.4l-37.333-37.333 38.4-38.4c8.533-8.533 12.621-18.492 12.267-29.867-0.354-11.379-4.8-21.333-13.333-29.867-8.533-7.825-18.487-11.913-29.867-12.267-11.379-0.358-21.333 3.733-29.867 12.267l-37.333 37.333zM256 149.333c12.089 0 22.222 4.087 30.4 12.267 8.178 8.175 12.267 18.308 12.267 30.4 0 12.087-4.089 22.221-12.267 30.4-8.178 8.175-18.311 12.267-30.4 12.267s-22.222-4.092-30.4-12.267c-8.178-8.179-12.267-18.313-12.267-30.4 0-12.092 4.089-22.225 12.267-30.4 8.178-8.179 18.311-12.267 30.4-12.267zM256 64c-35.555 0-65.778 12.442-90.667 37.333-24.889 24.887-37.333 55.108-37.333 90.667 0 35.554 12.445 65.775 37.333 90.667 24.889 24.887 55.111 37.333 90.667 37.333 26.311 0 50.311-7.292 72-21.867 21.689-14.579 37.511-34.313 47.467-59.2 27.733 7.821 50.311 23.108 67.733 45.867 17.421 22.754 26.133 48.708 26.133 77.867v170.667c0 59.021 20.8 109.332 62.4 150.932s91.913 62.4 150.933 62.4h49.067l-37.333 37.333c-8.533 8.533-12.621 18.667-12.267 30.4s4.8 21.867 13.333 30.4c8.533 8.533 18.667 12.8 30.4 12.8s21.867-4.267 30.4-12.8l109.867-110.933c8.533-8.533 12.8-18.489 12.8-29.867s-4.267-21.333-12.8-29.867l-110.933-110.933c-7.821-7.823-17.6-11.911-29.333-12.267s-21.867 3.733-30.4 12.267c-8.533 7.822-12.8 17.777-12.8 29.867s3.913 22.4 11.733 30.933l37.333 37.333h-49.067c-35.554 0-65.779-12.445-90.667-37.333s-37.333-55.111-37.333-90.666v-170.667c0-51.913-16.713-97.6-50.133-137.067s-75.733-63.825-126.933-73.067c-8.533-26.313-24-47.646-46.4-64-22.4-16.358-47.467-24.533-75.2-24.533zM256 643.199l-38.4-38.4c-7.822-7.823-17.6-11.733-29.333-11.733s-21.867 4.267-30.4 12.8c-7.822 7.822-11.733 17.777-11.733 29.867s3.911 22.044 11.733 29.867l37.333 38.4-37.333 37.333c-7.822 7.822-11.733 17.6-11.733 29.333s3.911 21.867 11.733 30.4c8.533 8.533 18.667 12.8 30.4 12.8s21.867-4.267 30.4-12.8l37.333-37.333 37.333 38.4c7.822 8.533 17.6 12.8 29.333 12.8s21.867-4.267 30.4-12.8c8.533-8.533 12.8-18.667 12.8-30.4s-4.267-21.867-12.8-30.4l-37.333-37.333 38.4-38.4c8.533-8.533 12.622-18.489 12.267-29.867s-4.8-21.333-13.333-29.867c-8.533-7.823-18.489-11.911-29.867-12.267s-21.333 3.733-29.867 12.267l-37.333 37.333z" />
<glyph unicode="&#xe926;" glyph-name="today" d="M384 256c-29.867 0-55.111 10.313-75.733 30.933s-30.933 45.867-30.933 75.733c0 29.867 10.311 55.113 30.933 75.733s45.867 30.933 75.733 30.933c29.867 0 55.113-10.313 75.733-30.933s30.933-45.867 30.933-75.733c0-29.867-10.313-55.113-30.933-75.733s-45.867-30.933-75.733-30.933zM213.333 21.333c-23.467 0-43.555 8.354-60.267 25.067s-25.067 36.8-25.067 60.267v597.333c0 23.467 8.355 43.555 25.067 60.267s36.8 25.067 60.267 25.067h42.667v42.667c0 12.089 4.089 22.222 12.267 30.4s18.311 12.267 30.4 12.267c12.089 0 22.222-4.089 30.4-12.267s12.267-18.311 12.267-30.4v-42.667h341.333v42.667c0 12.089 4.087 22.222 12.267 30.4s18.313 12.267 30.4 12.267c12.087 0 22.221-4.089 30.4-12.267s12.267-18.311 12.267-30.4v-42.667h42.667c23.467 0 43.554-8.355 60.267-25.067s25.067-36.8 25.067-60.267v-597.333c0-23.467-8.354-43.554-25.067-60.267s-36.8-25.067-60.267-25.067h-597.333zM213.333 106.667h597.333v426.667h-597.333v-426.667z" />
<glyph unicode="&#xe927;" glyph-name="Vector" d="M910.222 960c30.174 0 59.113-11.987 80.452-33.325s33.326-50.277 33.326-80.453v-796.444c0-30.174-11.986-59.113-33.326-80.452s-50.278-33.326-80.452-33.326h-796.444c-30.176 0-59.116 11.986-80.453 33.326s-33.325 50.278-33.325 80.452v796.444c0 30.176 11.987 59.116 33.325 80.453s50.277 33.325 80.453 33.325h796.444zM881.778 78.222v301.511c0 49.187-19.541 96.358-54.318 131.139-34.782 34.78-81.954 54.319-131.14 54.319-48.356 0-104.676-29.582-131.982-73.956v63.147h-158.72v-476.16h158.72v280.462c0 43.804 35.271 79.644 79.076 79.644 21.123 0 41.381-8.391 56.314-23.327 14.939-14.936 23.33-35.194 23.33-56.317v-280.462h158.72zM220.729 643.698c25.347 0 49.657 10.069 67.581 27.993s27.993 42.233 27.993 67.581c0 52.907-42.667 96.142-95.573 96.142-25.499 0-49.952-10.129-67.983-28.159s-28.159-42.484-28.159-67.983c0-52.907 43.236-95.573 96.142-95.573zM299.804 78.222v476.16h-157.582v-476.16h157.582z" />
<glyph unicode="&#xe928;" glyph-name="Vector-1" d="M512 960c-67.237 0-133.815-13.243-195.934-38.974s-118.561-63.444-166.105-110.988c-96.018-96.019-149.961-226.248-149.961-362.039 0-226.304 146.944-418.304 350.208-486.4 25.6-4.096 33.792 11.776 33.792 25.6v86.528c-141.824-30.72-172.032 68.608-172.032 68.608-23.552 59.392-56.832 75.264-56.832 75.264-46.592 31.744 3.584 30.72 3.584 30.72 51.2-3.584 78.336-52.736 78.336-52.736 44.544-77.824 119.808-54.784 148.992-42.496 4.608 33.28 17.92 55.808 32.256 68.608-113.664 12.8-232.96 56.832-232.96 251.904 0 56.832 19.456 102.4 52.736 138.752-5.12 12.8-23.040 66.048 5.12 135.168 0 0 43.008 13.824 140.8-52.224 40.448 11.264 84.48 16.896 128 16.896s87.552-5.632 128-16.896c97.792 66.048 140.8 52.224 140.8 52.224 28.16-69.12 10.24-122.368 5.12-135.168 33.28-36.352 52.736-81.92 52.736-138.752 0-195.584-119.808-238.592-233.984-251.392 18.432-15.872 35.328-47.104 35.328-94.72v-140.288c0-13.824 8.192-30.208 34.304-25.6 203.264 68.608 349.696 260.096 349.696 486.4 0 67.237-13.245 133.815-38.973 195.934-25.733 62.119-63.442 118.561-110.986 166.105s-103.987 85.257-166.108 110.988c-62.116 25.73-128.696 38.974-195.932 38.974z" />
<glyph unicode="&#xe929;" glyph-name="Vector-2" d="M806.441 908.8h157.015l-343.040-390.426 403.584-531.174h-315.991l-247.465 322.196-283.222-322.196h-157.098l366.934 417.615-387.158 503.942h324.010l223.702-294.497 258.729 294.54zM751.36 80.748h86.999l-561.623 739.389h-93.354l567.978-739.389z" />
<glyph unicode="&#xe92a;" glyph-name="wb_sunny" d="M469.333 832v42.667c0 12.089 4.087 22.222 12.267 30.4s18.313 12.267 30.4 12.267c12.087 0 22.221-4.089 30.4-12.267s12.267-18.311 12.267-30.4v-42.667c0-12.089-4.087-22.222-12.267-30.4s-18.313-12.267-30.4-12.267c-12.087 0-22.221 4.089-30.4 12.267s-12.267 18.311-12.267 30.4zM469.333 21.333v42.667c0 12.087 4.087 22.221 12.267 30.4s18.313 12.267 30.4 12.267c12.087 0 22.221-4.087 30.4-12.267s12.267-18.313 12.267-30.4v-42.667c0-12.087-4.087-22.221-12.267-30.4s-18.313-12.267-30.4-12.267c-12.087 0-22.221 4.087-30.4 12.267s-12.267 18.313-12.267 30.4zM938.667 405.333h-42.667c-12.087 0-22.221 4.087-30.4 12.267s-12.267 18.313-12.267 30.4c0 12.087 4.087 22.221 12.267 30.4s18.313 12.267 30.4 12.267h42.667c12.087 0 22.221-4.087 30.4-12.267s12.267-18.313 12.267-30.4c0-12.087-4.087-22.221-12.267-30.4s-18.313-12.267-30.4-12.267zM128 405.333h-42.667c-12.089 0-22.222 4.087-30.4 12.267s-12.267 18.313-12.267 30.4c0 12.087 4.089 22.221 12.267 30.4s18.311 12.267 30.4 12.267h42.667c12.089 0 22.222-4.087 30.4-12.267s12.267-18.313 12.267-30.4c0-12.087-4.089-22.221-12.267-30.4s-18.311-12.267-30.4-12.267zM842.667 717.867l-14.933-14.933c-7.821-7.822-17.6-11.733-29.333-11.733s-21.867 4.267-30.4 12.8c-7.821 7.822-11.913 17.6-12.267 29.333s3.379 21.867 11.2 30.4l16 16c7.821 8.533 17.779 12.8 29.867 12.8s22.4-4.267 30.933-12.8c8.533-8.533 12.621-18.845 12.267-30.933s-4.8-22.4-13.333-30.933zM257.067 132.267l-16-16c-7.822-8.533-17.778-12.8-29.867-12.8s-22.4 4.267-30.933 12.8c-8.533 8.533-12.622 18.846-12.267 30.933s4.8 22.4 13.333 30.933l14.933 14.933c7.822 7.821 17.6 11.733 29.333 11.733s21.867-4.267 30.4-12.8c7.822-7.821 11.911-17.6 12.267-29.333s-3.378-21.867-11.2-30.4zM781.867 117.333l-14.933 14.933c-7.821 7.821-11.733 17.6-11.733 29.333s4.267 21.867 12.8 30.4c7.821 7.821 17.6 11.913 29.333 12.267s21.867-3.379 30.4-11.2l16-16c8.533-7.821 12.8-17.779 12.8-29.867s-4.267-22.4-12.8-30.933c-8.533-8.533-18.846-12.621-30.933-12.267s-22.4 4.8-30.933 13.333zM196.267 702.933l-16 16c-8.533 7.822-12.8 17.778-12.8 29.867s4.267 22.4 12.8 30.933c8.533 8.533 18.845 12.622 30.933 12.267s22.4-4.8 30.933-13.333l14.933-14.933c7.822-7.822 11.733-17.6 11.733-29.333s-4.267-21.867-12.8-30.4c-7.822-7.822-17.6-11.911-29.333-12.267s-21.867 3.378-30.4 11.2zM512 192c-71.113 0-131.555 24.887-181.333 74.667s-74.667 110.221-74.667 181.333c0 71.113 24.889 131.555 74.667 181.333s110.221 74.667 181.333 74.667c71.113 0 131.554-24.889 181.333-74.667s74.667-110.221 74.667-181.333c0-71.113-24.887-131.554-74.667-181.333s-110.221-74.667-181.333-74.667z" />
<glyph unicode="&#xe92b;" glyph-name="widgets" d="M680.533 435.2l-181.333 181.333c-4.267 4.267-7.287 8.889-9.067 13.867s-2.667 10.311-2.667 16c0 5.689 0.887 11.022 2.667 16s4.8 9.6 9.067 13.867l181.333 181.333c4.267 4.267 8.887 7.289 13.867 9.067s10.313 2.667 16 2.667c5.687 0 11.021-0.889 16-2.667s9.6-4.8 13.867-9.067l181.333-181.333c4.267-4.267 7.287-8.889 9.067-13.867s2.667-10.311 2.667-16c0-5.689-0.887-11.022-2.667-16s-4.8-9.6-9.067-13.867l-181.333-181.333c-4.267-4.267-8.887-7.287-13.867-9.067s-10.313-2.667-16-2.667c-5.687 0-11.021 0.887-16 2.667s-9.6 4.8-13.867 9.067zM128 533.333v256c0 12.089 4.089 22.222 12.267 30.4s18.311 12.267 30.4 12.267h256c12.087 0 22.221-4.089 30.4-12.267s12.267-18.311 12.267-30.4v-256c0-12.087-4.087-22.221-12.267-30.4s-18.313-12.267-30.4-12.267h-256c-12.089 0-22.222 4.087-30.4 12.267s-12.267 18.313-12.267 30.4zM554.667 106.667v256c0 12.087 4.087 22.221 12.267 30.4s18.313 12.267 30.4 12.267h256c12.087 0 22.221-4.087 30.4-12.267s12.267-18.313 12.267-30.4v-256c0-12.087-4.087-22.221-12.267-30.4s-18.313-12.267-30.4-12.267h-256c-12.087 0-22.221 4.087-30.4 12.267s-12.267 18.313-12.267 30.4zM128 106.667v256c0 12.087 4.089 22.221 12.267 30.4s18.311 12.267 30.4 12.267h256c12.087 0 22.221-4.087 30.4-12.267s12.267-18.313 12.267-30.4v-256c0-12.087-4.087-22.221-12.267-30.4s-18.313-12.267-30.4-12.267h-256c-12.089 0-22.222 4.087-30.4 12.267s-12.267 18.313-12.267 30.4z" />
<glyph unicode="&#xe92c;" glyph-name="window" d="M554.667 405.333h341.333v-256c0-23.467-8.354-43.554-25.067-60.267s-36.8-25.067-60.267-25.067h-256v341.333zM554.667 490.667v341.333h256c23.467 0 43.554-8.355 60.267-25.067s25.067-36.8 25.067-60.267v-256h-341.333zM469.333 490.667h-341.333v256c0 23.467 8.355 43.555 25.067 60.267s36.8 25.067 60.267 25.067h256v-341.333zM469.333 405.333v-341.333h-256c-23.467 0-43.555 8.354-60.267 25.067s-25.067 36.8-25.067 60.267v256h341.333z" />
</font>
</defs>
</svg>
