<svg width="150" height="151" viewBox="0 0 150 151" fill="none" xmlns="http://www.w3.org/2000/svg">
<path fill-rule="evenodd" clip-rule="evenodd" d="M140.754 2.1586e-06L9.20361 3.28722e-05L0 8.71976L2.25041e-05 3.5021e-05L0 3.5021e-05V8.71976V17.5342H65.7234V97.3882H18.7502V115.021H131.25V97.3882H84.3679V17.5342H150V0L150 0V8.71979L140.754 2.1586e-06Z" fill="white"/>
<path fill-rule="evenodd" clip-rule="evenodd" d="M0 26.4439V141.664L9.38185 150.513L140.639 150.513L150 141.644L150 26.4439H93.7498L93.7498 44.168L93.7498 44.1942L93.7498 61.8922H112.5V44.1942H131.25V132.789L84.3637 132.789V150.513H65.6597V132.789L18.75 132.789V44.1942H37.4999V61.8922H56.2499L56.2499 44.1942L56.2499 44.168L56.2499 26.4439L0 26.4439Z" fill="white"/>
</svg>
