{"asset":{"version":"2.0","generator":"VECTARY"},"nodes":[{"translation":[-0.14652481885415342,0,0],"scale":[0.001,0.001,0.001],"rotation":[-0.7071067811865475,0,0,0.7071067811865476],"name":"3D Text - C","mesh":0},{"translation":[-0.11488481005415344,0,0],"scale":[0.001,0.001,0.001],"rotation":[-0.7071067811865475,0,0,0.7071067811865476],"name":"3D Text - a","mesh":1},{"translation":[-0.08889177391040343,0,0],"scale":[0.001,0.001,0.001],"rotation":[-0.7071067811865475,0,0,0.7071067811865476],"name":"3D Text - r","mesh":2},{"translation":[-0.06973223386040345,0,0],"scale":[0.001,0.001,0.001],"rotation":[-0.7071067811865475,0,0,0.7071067811865476],"name":"3D Text - l","mesh":3},{"translation":[-0.05525286959165344,0,0],"scale":[0.001,0.001,0.001],"rotation":[-0.7071067811865475,0,0,0.7071067811865476],"name":"3D Text - o","mesh":4},{"translation":[-0.02787555610415343,0,0],"scale":[0.001,0.001,0.001],"rotation":[-0.7071067811865475,0,0,0.7071067811865476],"name":"3D Text - s","mesh":5},{"translation":[0.010597332589596562,0,0],"scale":[0.001,0.001,0.001],"rotation":[-0.7071067811865475,0,0,0.7071067811865476],"name":"3D Text - I","mesh":6},{"translation":[0.026285192952096567,0,0],"scale":[0.001,0.001,0.001],"rotation":[-0.7071067811865475,0,0,0.7071067811865476],"name":"3D Text - b","mesh":7},{"translation":[0.05372842440834657,0,0],"scale":[0.001,0.001,0.001],"rotation":[-0.7071067811865475,0,0,0.7071067811865476],"name":"3D Text - o","mesh":8},{"translation":[0.08110573789584657,0,0],"scale":[0.001,0.001,0.001],"rotation":[-0.7071067811865475,0,0,0.7071067811865476],"name":"3D Text - r","mesh":9},{"translation":[0.10026527794584658,0,0],"scale":[0.001,0.001,0.001],"rotation":[-0.7071067811865475,0,0,0.7071067811865476],"name":"3D Text - r","mesh":10},{"translation":[0.11942481799584656,0,0],"scale":[0.001,0.001,0.001],"rotation":[-0.7071067811865475,0,0,0.7071067811865476],"name":"3D Text - a","mesh":11}],"materials":[{"pbrMetallicRoughness":{"baseColorFactor":[0,0.6800203421720954,0.002585825596234168,1],"metallicFactor":0,"roughnessFactor":1},"name":"Beauty","emissiveFactor":[0,0,0],"extensions":{},"alphaMode":"OPAQUE","doubleSided":false}],"meshes":[{"primitives":[{"mode":4,"attributes":{"POSITION":1,"NORMAL":2,"TEXCOORD_0":3},"material":0,"indices":0}]},{"primitives":[{"mode":4,"attributes":{"POSITION":5,"NORMAL":6,"TEXCOORD_0":7},"material":0,"indices":4}]},{"primitives":[{"mode":4,"attributes":{"POSITION":9,"NORMAL":10,"TEXCOORD_0":11},"material":0,"indices":8}]},{"primitives":[{"mode":4,"attributes":{"POSITION":13,"NORMAL":14,"TEXCOORD_0":15},"material":0,"indices":12}]},{"primitives":[{"mode":4,"attributes":{"POSITION":17,"NORMAL":18,"TEXCOORD_0":19},"material":0,"indices":16}]},{"primitives":[{"mode":4,"attributes":{"POSITION":21,"NORMAL":22,"TEXCOORD_0":23},"material":0,"indices":20}]},{"primitives":[{"mode":4,"attributes":{"POSITION":25,"NORMAL":26,"TEXCOORD_0":27},"material":0,"indices":24}]},{"primitives":[{"mode":4,"attributes":{"POSITION":29,"NORMAL":30,"TEXCOORD_0":31},"material":0,"indices":28}]},{"primitives":[{"mode":4,"attributes":{"POSITION":17,"NORMAL":18,"TEXCOORD_0":19},"material":0,"indices":16}]},{"primitives":[{"mode":4,"attributes":{"POSITION":9,"NORMAL":10,"TEXCOORD_0":11},"material":0,"indices":8}]},{"primitives":[{"mode":4,"attributes":{"POSITION":9,"NORMAL":10,"TEXCOORD_0":11},"material":0,"indices":8}]},{"primitives":[{"mode":4,"attributes":{"POSITION":5,"NORMAL":6,"TEXCOORD_0":7},"material":0,"indices":4}]}],"accessors":[{"bufferView":0,"byteOffset":0,"componentType":5125,"count":2196,"type":"SCALAR"},{"bufferView":1,"byteOffset":0,"componentType":5126,"count":1466,"max":[31.518999099731445,2.2080382871224585e-15,36.060001373291016],"min":[1.684999942779541,-15,-0.4880000054836273],"type":"VEC3"},{"bufferView":2,"byteOffset":0,"componentType":5126,"count":1466,"type":"VEC3"},{"bufferView":3,"byteOffset":0,"componentType":5126,"count":1466,"type":"VEC2"},{"bufferView":4,"byteOffset":0,"componentType":5125,"count":2256,"type":"SCALAR"},{"bufferView":5,"byteOffset":0,"componentType":5126,"count":1504,"max":[25.415000915527344,1.6473948026313624e-15,26.90399932861328],"min":[1.0989999771118164,-15,-0.4880000054836273],"type":"VEC3"},{"bufferView":6,"byteOffset":0,"componentType":5126,"count":1504,"type":"VEC3"},{"bufferView":7,"byteOffset":0,"componentType":5126,"count":1504,"type":"VEC2"},{"bufferView":8,"byteOffset":0,"componentType":5125,"count":432,"type":"SCALAR"},{"bufferView":9,"byteOffset":0,"componentType":5126,"count":289,"max":[18.433000564575195,1.6473948026313624e-15,26.90399932861328],"min":[2.368000030517578,-15,0],"type":"VEC3"},{"bufferView":10,"byteOffset":0,"componentType":5126,"count":289,"type":"VEC3"},{"bufferView":11,"byteOffset":0,"componentType":5126,"count":289,"type":"VEC2"},{"bufferView":12,"byteOffset":0,"componentType":5125,"count":36,"type":"SCALAR"},{"bufferView":13,"byteOffset":0,"componentType":5126,"count":24,"max":[10.986000061035156,2.2962127228657366e-15,37.5],"min":[2.7339999675750732,-15,0],"type":"VEC3"},{"bufferView":14,"byteOffset":0,"componentType":5126,"count":24,"type":"VEC3"},{"bufferView":15,"byteOffset":0,"componentType":5126,"count":24,"type":"VEC2"},{"bufferView":16,"byteOffset":0,"componentType":5125,"count":1728,"type":"SCALAR"},{"bufferView":17,"byteOffset":0,"componentType":5126,"count":1152,"max":[26.757999420166016,1.6473948026313624e-15,26.90399932861328],"min":[1.2699999809265137,-15,-0.4880000054836273],"type":"VEC3"},{"bufferView":18,"byteOffset":0,"componentType":5126,"count":1152,"type":"VEC3"},{"bufferView":19,"byteOffset":0,"componentType":5126,"count":1152,"type":"VEC2"},{"bufferView":20,"byteOffset":0,"componentType":5125,"count":3012,"type":"SCALAR"},{"bufferView":21,"byteOffset":0,"componentType":5126,"count":2010,"max":[24.121000289916992,1.6473948026313624e-15,26.90399932861328],"min":[0.8539999723434448,-15,-0.4880000054836273],"type":"VEC3"},{"bufferView":22,"byteOffset":0,"componentType":5126,"count":2010,"type":"VEC3"},{"bufferView":23,"byteOffset":0,"componentType":5126,"count":2010,"type":"VEC2"},{"bufferView":24,"byteOffset":0,"componentType":5125,"count":36,"type":"SCALAR"},{"bufferView":25,"byteOffset":0,"componentType":5126,"count":24,"max":[11.815999984741211,2.1766260702735327e-15,35.547000885009766],"min":[3.2709999084472656,-15,0],"type":"VEC3"},{"bufferView":26,"byteOffset":0,"componentType":5126,"count":24,"type":"VEC3"},{"bufferView":27,"byteOffset":0,"componentType":5126,"count":24,"type":"VEC2"},{"bufferView":28,"byteOffset":0,"componentType":5125,"count":1524,"type":"SCALAR"},{"bufferView":29,"byteOffset":0,"componentType":5126,"count":1018,"max":[26.83099937438965,2.2962127228657366e-15,37.5],"min":[2.368000030517578,-15,-0.4880000054836273],"type":"VEC3"},{"bufferView":30,"byteOffset":0,"componentType":5126,"count":1018,"type":"VEC3"},{"bufferView":31,"byteOffset":0,"componentType":5126,"count":1018,"type":"VEC2"}],"bufferViews":[{"buffer":0,"byteOffset":0,"byteLength":8784,"target":34963},{"buffer":0,"byteOffset":8784,"byteLength":17592,"target":34962},{"buffer":0,"byteOffset":26376,"byteLength":17592,"target":34962},{"buffer":0,"byteOffset":43968,"byteLength":11728,"target":34962},{"buffer":0,"byteOffset":55696,"byteLength":9024,"target":34963},{"buffer":0,"byteOffset":64720,"byteLength":18048,"target":34962},{"buffer":0,"byteOffset":82768,"byteLength":18048,"target":34962},{"buffer":0,"byteOffset":100816,"byteLength":12032,"target":34962},{"buffer":0,"byteOffset":112848,"byteLength":1728,"target":34963},{"buffer":0,"byteOffset":114576,"byteLength":3468,"target":34962},{"buffer":0,"byteOffset":118044,"byteLength":3468,"target":34962},{"buffer":0,"byteOffset":121512,"byteLength":2312,"target":34962},{"buffer":0,"byteOffset":123824,"byteLength":144,"target":34963},{"buffer":0,"byteOffset":123968,"byteLength":288,"target":34962},{"buffer":0,"byteOffset":124256,"byteLength":288,"target":34962},{"buffer":0,"byteOffset":124544,"byteLength":192,"target":34962},{"buffer":0,"byteOffset":124736,"byteLength":6912,"target":34963},{"buffer":0,"byteOffset":131648,"byteLength":13824,"target":34962},{"buffer":0,"byteOffset":145472,"byteLength":13824,"target":34962},{"buffer":0,"byteOffset":159296,"byteLength":9216,"target":34962},{"buffer":0,"byteOffset":168512,"byteLength":12048,"target":34963},{"buffer":0,"byteOffset":180560,"byteLength":24120,"target":34962},{"buffer":0,"byteOffset":204680,"byteLength":24120,"target":34962},{"buffer":0,"byteOffset":228800,"byteLength":16080,"target":34962},{"buffer":0,"byteOffset":244880,"byteLength":144,"target":34963},{"buffer":0,"byteOffset":245024,"byteLength":288,"target":34962},{"buffer":0,"byteOffset":245312,"byteLength":288,"target":34962},{"buffer":0,"byteOffset":245600,"byteLength":192,"target":34962},{"buffer":0,"byteOffset":245792,"byteLength":6096,"target":34963},{"buffer":0,"byteOffset":251888,"byteLength":12216,"target":34962},{"buffer":0,"byteOffset":264104,"byteLength":12216,"target":34962},{"buffer":0,"byteOffset":276320,"byteLength":8144,"target":34962}],"scene":0,"scenes":[{"nodes":[0,1,2,3,4,5,6,7,8,9,10,11],"name":"Project Name"}],"extensionsUsed":["KHR_texture_transform"],"buffers":[{"byteLength":284464,"uri":"ProjectName.bin"}]}