<svg width="350" height="348" viewBox="0 0 350 348" fill="none" xmlns="http://www.w3.org/2000/svg">
<path fill-rule="evenodd" clip-rule="evenodd" d="M240.68 80L108.064 80.0001L98.786 89.2991L98.786 80.0001L98.7859 80.0001V98.6992H165.041V183.859H117.688V202.663H231.098V183.859H183.837V98.6992H250V80L250 80V89.2991L240.68 80Z" fill="black"/>
<path fill-rule="evenodd" clip-rule="evenodd" d="M98.7859 108.201V231.076L108.244 240.513H240.563L250 231.055L250 108.201H193.295V127.103V127.13V146.004H212.196V127.13H231.098V221.611L183.832 221.611V240.513H164.977V221.611L117.688 221.611V127.13H136.589V146.004H155.491V127.13V127.103V108.201L98.7859 108.201Z" fill="black"/>
</svg>
