<?xml version="1.0" encoding="UTF-8"?>
<svg fill="none" viewBox="0 0 68 103" xmlns="http://www.w3.org/2000/svg">
<path d="m63.383 62c0 5.7917-0.6667 10.938-2 15.438-1.3333 4.4583-3.25 8.2083-5.75 11.25-2.5 3.0833-5.5625 5.4167-9.1875 7s-7.7708 2.375-12.438 2.375c-4.625 0-8.7708-0.7708-12.438-2.3125-3.6667-1.5833-6.7708-3.9375-9.3125-7.0625-2.5416-3.0417-4.4792-6.7917-5.8125-11.25-1.3333-4.5-2-9.6458-2-15.438v-21.312c0-5.7917 0.66667-10.917 2-15.375 1.3333-4.5 3.2708-8.2917 5.8125-11.375 2.5-3.0833 5.5625-5.4167 9.1875-7 3.6667-1.625 7.8125-2.4375 12.438-2.4375 4.6667 0 8.8125 0.8125 12.438 2.4375 3.6667 1.5833 6.7708 3.9167 9.3125 7 2.5 3.0833 4.4167 6.875 5.75 11.375 1.3333 4.4583 2 9.5833 2 15.375v21.312zm-47.312-2.3125 35.438-27.188c-0.3333-3-0.9375-5.6458-1.8125-7.9375-0.8333-2.3333-1.9792-4.2708-3.4375-5.8125-1.4167-1.5833-3.1667-2.7708-5.25-3.5625-2.0417-0.7917-4.4167-1.1875-7.125-1.1875-2.75 0-5.1875 0.4375-7.3125 1.3125-2.0833 0.8333-3.8542 2.0625-5.3125 3.6875-1.75 2.0417-3.0625 4.6875-3.9375 7.9375-0.8333 3.2083-1.25 6.9375-1.25 11.188v15.25 3.125 3.1875zm35.688 4.75v-12.875-3.5625-4.4375l-35.375 27.062c0.375 3.0417 1.0417 5.7292 2 8.0625 0.9583 2.2917 2.2083 4.1875 3.75 5.6875 1.4167 1.4167 3.125 2.5 5.125 3.25 2 0.7083 4.25 1.0625 6.75 1.0625 2.625 0 4.9583-0.3958 7-1.1875s3.7708-1.9375 5.1875-3.4375c1.9167-2.0417 3.3125-4.7083 4.1875-8 0.9167-3.2917 1.375-7.1667 1.375-11.625z" fill="#fff"/>
<path d="m49.758 64.438v-16.438 16.438zm0 0c0 4.3288-0.4458 8.0152-1.3017 11.088l1.3017-11.088zm13.541 13.573 0.0014-0.0049c1.399-4.7217 2.0824-10.065 2.0824-16.006v-21.312c0-5.9398-0.6831-11.264-2.0834-15.946-1.3946-4.7055-3.4208-8.7426-6.1131-12.063l-0.0051-0.0063-0.0051-0.0062c-2.7405-3.3246-6.0976-5.8495-10.05-7.5586-3.9203-1.7549-8.3483-2.6068-13.243-2.6068-4.8596 0-9.2861 0.85417-13.243 2.6068-3.9147 1.7108-7.2317 4.2383-9.9305 7.5648-2.7365 3.3216-4.7853 7.3611-6.1809 12.07-1.4001 4.6826-2.0832 10.006-2.0832 15.946v21.312c0 5.941 0.6834 11.284 2.0824 16.006l0.00146 0.0049c1.3962 4.6687 3.4465 8.6682 6.1853 11.949 2.7414 3.3673 6.1022 5.9161 10.063 7.6264l0.0089 0.0038 0.0088 0.0038c3.9487 1.6602 8.3643 2.4683 13.213 2.4683 4.8933 0 9.3193-0.8301 13.238-2.5417 3.9174-1.7111 7.2365-4.2398 9.9366-7.5684 2.6943-3.2797 4.7215-7.2765 6.1166-11.941zm-15.487-52.775 0.0073 0.0204 0.0078 0.0203c0.697 1.8256 1.2202 3.9326 1.5545 6.3347l-31.311 24.022v-17.507c0-4.1215 0.4043-7.6723 1.1835-10.676 0.8138-3.0185 2.0028-5.368 3.5077-7.13 1.2444-1.3815 2.7527-2.4299 4.5516-3.1494l0.0094-0.0038 0.0093-0.0038c1.8409-0.7581 4.012-1.1619 6.551-1.1619 2.5176 0 4.6383 0.3684 6.402 1.0522l-1e-4 1e-4 0.0127 0.0048c1.7993 0.6837 3.2772 1.6934 4.4699 3.0265l0.0185 0.0207 0.0191 0.0201c1.2384 1.3092 2.2514 2.9953 3.0069 5.1108zm-24.265 57.726-0.0097-0.0097-0.0098-0.0095-1.3947 1.4334 1.4142-1.4142zm26.211-37.868v0.7889-0.7889z" stroke="#000" stroke-opacity=".4" stroke-width="4"/>
</svg>
