<svg width="68" height="103" viewBox="0 0 68 103" fill="none" xmlns="http://www.w3.org/2000/svg">
<path d="M63.3828 62C63.3828 67.7917 62.7161 72.9375 61.3828 77.4375C60.0495 81.8958 58.1328 85.6458 55.6328 88.6875C53.1328 91.7708 50.0703 94.1042 46.4453 95.6875C42.8203 97.2708 38.6745 98.0625 34.0078 98.0625C29.3828 98.0625 25.237 97.2917 21.5703 95.75C17.9036 94.1667 14.7995 91.8125 12.2578 88.6875C9.71615 85.6458 7.77865 81.8958 6.44531 77.4375C5.11198 72.9375 4.44531 67.7917 4.44531 62V40.6875C4.44531 34.8958 5.11198 29.7708 6.44531 25.3125C7.77865 20.8125 9.71615 17.0208 12.2578 13.9375C14.7578 10.8542 17.8203 8.52083 21.4453 6.9375C25.112 5.3125 29.2578 4.5 33.8828 4.5C38.5495 4.5 42.6953 5.3125 46.3203 6.9375C49.987 8.52083 53.0911 10.8542 55.6328 13.9375C58.1328 17.0208 60.0495 20.8125 61.3828 25.3125C62.7161 29.7708 63.3828 34.8958 63.3828 40.6875V62ZM16.0703 59.6875L51.5078 32.5C51.1745 29.5 50.5703 26.8542 49.6953 24.5625C48.862 22.2292 47.7161 20.2917 46.2578 18.75C44.8411 17.1667 43.0911 15.9792 41.0078 15.1875C38.9661 14.3958 36.5911 14 33.8828 14C31.1328 14 28.6953 14.4375 26.5703 15.3125C24.487 16.1458 22.7161 17.375 21.2578 19C19.5078 21.0417 18.1953 23.6875 17.3203 26.9375C16.487 30.1458 16.0703 33.875 16.0703 38.125V53.375C16.0703 54.4167 16.0703 55.4583 16.0703 56.5C16.0703 57.5417 16.0703 58.6042 16.0703 59.6875ZM51.7578 64.4375V51.5625C51.7578 50.9375 51.7578 49.75 51.7578 48C51.7578 46.2083 51.7578 44.7292 51.7578 43.5625L16.3828 70.625C16.7578 73.6667 17.4245 76.3542 18.3828 78.6875C19.3411 80.9792 20.5911 82.875 22.1328 84.375C23.5495 85.7917 25.2578 86.875 27.2578 87.625C29.2578 88.3333 31.5078 88.6875 34.0078 88.6875C36.6328 88.6875 38.9661 88.2917 41.0078 87.5C43.0495 86.7083 44.7786 85.5625 46.1953 84.0625C48.112 82.0208 49.5078 79.3542 50.3828 76.0625C51.2995 72.7708 51.7578 68.8958 51.7578 64.4375Z" fill="white"/>
<path d="M49.7578 64.4375V51.5625V51.5588V51.5551V51.5515V51.5477V51.544V51.5403V51.5365V51.5328V51.529V51.5252V51.5214V51.5176V51.5138V51.51V51.5061V51.5023V51.4984V51.4945V51.4906V51.4867V51.4828V51.4788V51.4749V51.4709V51.4669V51.4629V51.4589V51.4549V51.4509V51.4468V51.4428V51.4387V51.4346V51.4305V51.4264V51.4223V51.4182V51.414V51.4099V51.4057V51.4015V51.3973V51.3931V51.3889V51.3847V51.3804V51.3762V51.3719V51.3676V51.3633V51.359V51.3547V51.3503V51.346V51.3416V51.3372V51.3328V51.3284V51.324V51.3196V51.3152V51.3107V51.3062V51.3018V51.2973V51.2928V51.2882V51.2837V51.2792V51.2746V51.27V51.2655V51.2609V51.2563V51.2516V51.247V51.2424V51.2377V51.233V51.2283V51.2236V51.2189V51.2142V51.2095V51.2047V51.1999V51.1952V51.1904V51.1856V51.1808V51.1759V51.1711V51.1662V51.1614V51.1565V51.1516V51.1467V51.1418V51.1369V51.1319V51.127V51.122V51.117V51.112V51.107V51.102V51.097V51.0919V51.0868V51.0818V51.0767V51.0716V51.0665V51.0614V51.0562V51.0511V51.0459V51.0407V51.0355V51.0303V51.0251V51.0199V51.0147V51.0094V51.0042V50.9989V50.9936V50.9883V50.983V50.9776V50.9723V50.9669V50.9616V50.9562V50.9508V50.9454V50.94V50.9345V50.9291V50.9236V50.9182V50.9127V50.9072V50.9017V50.8961V50.8906V50.8851V50.8795V50.8739V50.8683V50.8627V50.8571V50.8515V50.8459V50.8402V50.8346V50.8289V50.8232V50.8175V50.8118V50.806V50.8003V50.7945V50.7888V50.783V50.7772V50.7714V50.7656V50.7597V50.7539V50.748V50.7422V50.7363V50.7304V50.7245V50.7186V50.7126V50.7067V50.7007V50.6948V50.6888V50.6828V50.6768V50.6707V50.6647V50.6586V50.6526V50.6465V50.6404V50.6343V50.6282V50.6221V50.6159V50.6098V50.6036V50.5974V50.5912V50.585V50.5788V50.5726V50.5663V50.5601V50.5538V50.5475V50.5412V50.5349V50.5286V50.5223V50.5159V50.5096V50.5032V50.4968V50.4904V50.484V50.4776V50.4711V50.4647V50.4582V50.4518V50.4453V50.4388V50.4323V50.4257V50.4192V50.4126V50.4061V50.3995V50.3929V50.3863V50.3797V50.3731V50.3664V50.3598V50.3531V50.3464V50.3397V50.333V50.3263V50.3195V50.3128V50.306V50.2993V50.2925V50.2857V50.2789V50.2721V50.2652V50.2584V50.2515V50.2446V50.2378V50.2309V50.2239V50.217V50.2101V50.2031V50.1962V50.1892V50.1822V50.1752V50.1682V50.1611V50.1541V50.147V50.14V50.1329V50.1258V50.1187V50.1116V50.1045V50.0973V50.0901V50.083V50.0758V50.0686V50.0614V50.0542V50.0469V50.0397V50.0324V50.0252V50.0179V50.0106V50.0033V49.9959V49.9886V49.9812V49.9739V49.9665V49.9591V49.9517V49.9443V49.9369V49.9294V49.922V49.9145V49.907V49.8995V49.892V49.8845V49.877V49.8694V49.8619V49.8543V49.8467V49.8391V49.8315V49.8239V49.8163V49.8086V49.801V49.7933V49.7856V49.7779V49.7702V49.7625V49.7547V49.747V49.7392V49.7314V49.7237V49.7159V49.708V49.7002V49.6924V49.6845V49.6767V49.6688V49.6609V49.653V49.6451V49.6371V49.6292V49.6212V49.6133V49.6053V49.5973V49.5893V49.5813V49.5732V49.5652V49.5571V49.5491V49.541V49.5329V49.5248V49.5166V49.5085V49.5004V49.4922V49.484V49.4758V49.4676V49.4594V49.4512V49.443V49.4347V49.4264V49.4182V49.4099V49.4016V49.3932V49.3849V49.3766V49.3682V49.3599V49.3515V49.3431V49.3347V49.3263V49.3178V49.3094V49.3009V49.2924V49.284V49.2755V49.267V49.2584V49.2499V49.2414V49.2328V49.2242V49.2156V49.207V49.1984V49.1898V49.1812V49.1725V49.1638V49.1552V49.1465V49.1378V49.1291V49.1203V49.1116V49.1028V49.0941V49.0853V49.0765V49.0677V49.0589V49.05V49.0412V49.0323V49.0235V49.0146V49.0057V48.9968V48.9879V48.9789V48.97V48.961V48.952V48.9431V48.9341V48.925V48.916V48.907V48.8979V48.8889V48.8798V48.8707V48.8616V48.8525V48.8434V48.8342V48.8251V48.8159V48.8067V48.7975V48.7883V48.7791V48.7699V48.7606V48.7514V48.7421V48.7328V48.7235V48.7142V48.7049V48.6956V48.6862V48.6769V48.6675V48.6581V48.6487V48.6393V48.6299V48.6204V48.611V48.6015V48.5921V48.5826V48.5731V48.5636V48.554V48.5445V48.5349V48.5254V48.5158V48.5062V48.4966V48.487V48.4774V48.4677V48.4581V48.4484V48.4387V48.429V48.4193V48.4096V48.3999V48.3901V48.3804V48.3706V48.3608V48.351V48.3412V48.3314V48.3215V48.3117V48.3018V48.292V48.2821V48.2722V48.2622V48.2523V48.2424V48.2324V48.2225V48.2125V48.2025V48.1925V48.1825V48.1725V48.1624V48.1524V48.1423V48.1322V48.1221V48.112V48.1019V48.0918V48.0816V48.0715V48.0613V48.0511V48.0409V48.0307V48.0205V48.0102V48V64.4375ZM49.7578 64.4375C49.7578 68.7663 49.312 72.4527 48.4561 75.526L49.7578 64.4375ZM63.299 78.0106L63.3004 78.0057C64.6994 73.284 65.3828 67.941 65.3828 62V40.6875C65.3828 34.7477 64.6997 29.4238 63.2994 24.741C61.9048 20.0355 59.8786 15.9984 57.1863 12.6779L57.1812 12.6716L57.1761 12.6654C54.4356 9.34082 51.0785 6.81593 47.1258 5.10682C43.2055 3.3519 38.7775 2.5 33.8828 2.5C29.0232 2.5 24.5967 3.35417 20.6399 5.10682C16.7252 6.81759 13.4082 9.3451 10.7094 12.6716C7.97293 15.9932 5.92406 20.0327 4.52848 24.7418C3.12836 29.4244 2.44531 34.748 2.44531 40.6875V62C2.44531 67.941 3.12871 73.284 4.52771 78.0057L4.52917 78.0106C5.92542 82.6793 7.97565 86.6788 10.7145 89.9597C13.4559 93.327 16.8167 95.8758 20.7774 97.5861L20.7863 97.5899L20.7951 97.5937C24.7438 99.2539 29.1594 100.062 34.0078 100.062C38.9011 100.062 43.3271 99.2319 47.2458 97.5203C51.1632 95.8092 54.4823 93.2805 57.1824 89.9519C59.8767 86.6722 61.9039 82.6754 63.299 78.0106ZM47.8118 25.2352L47.8191 25.2556L47.8269 25.2759C48.5239 27.1015 49.0471 29.2085 49.3814 31.6106L18.0703 55.6323V55.6272V55.6211V55.615V55.6089V55.6028V55.5967V55.5906V55.5845V55.5784V55.5723V55.5662V55.5601V55.554V55.5479V55.5417V55.5356V55.5295V55.5234V55.5173V55.5112V55.5051V55.499V55.4929V55.4868V55.4807V55.4746V55.4685V55.4624V55.4563V55.4502V55.4441V55.438V55.4319V55.4258V55.4197V55.4136V55.4075V55.4014V55.3953V55.3892V55.3831V55.377V55.3708V55.3647V55.3586V55.3525V55.3464V55.3403V55.3342V55.3281V55.322V55.3159V55.3098V55.3037V55.2976V55.2915V55.2854V55.2793V55.2732V55.2671V55.261V55.2549V55.2488V55.2427V55.2366V55.2305V55.2244V55.2183V55.2122V55.2061V55.2V55.1938V55.1877V55.1816V55.1755V55.1694V55.1633V55.1572V55.1511V55.145V55.1389V55.1328V55.1267V55.1206V55.1145V55.1084V55.1023V55.0962V55.0901V55.084V55.0779V55.0718V55.0657V55.0596V55.0535V55.0474V55.0413V55.0352V55.0291V55.0229V55.0168V55.0107V55.0046V54.9985V54.9924V54.9863V54.9802V54.9741V54.968V54.9619V54.9558V54.9497V54.9436V54.9375V54.9314V54.9253V54.9192V54.9131V54.907V54.9009V54.8948V54.8887V54.8826V54.8765V54.8704V54.8643V54.8582V54.8521V54.8459V54.8398V54.8337V54.8276V54.8215V54.8154V54.8093V54.8032V54.7971V54.791V54.7849V54.7788V54.7727V54.7666V54.7605V54.7544V54.7483V54.7422V54.7361V54.73V54.7239V54.7178V54.7117V54.7056V54.6995V54.6934V54.6873V54.6812V54.675V54.6689V54.6628V54.6567V54.6506V54.6445V54.6384V54.6323V54.6262V54.6201V54.614V54.6079V54.6018V54.5957V54.5896V54.5835V54.5774V54.5713V54.5652V54.5591V54.553V54.5469V54.5408V54.5347V54.5286V54.5225V54.5164V54.5103V54.5042V54.498V54.4919V54.4858V54.4797V54.4736V54.4675V54.4614V54.4553V54.4492V54.4431V54.437V54.4309V54.4248V54.4187V54.4126V54.4065V54.4004V54.3943V54.3882V54.3821V54.376V54.3699V54.3638V54.3577V54.3516V54.3455V54.3394V54.3333V54.3271V54.321V54.3149V54.3088V54.3027V54.2966V54.2905V54.2844V54.2783V54.2722V54.2661V54.26V54.2539V54.2478V54.2417V54.2356V54.2295V54.2234V54.2173V54.2112V54.2051V54.199V54.1929V54.1868V54.1807V54.1746V54.1685V54.1624V54.1562V54.1501V54.144V54.1379V54.1318V54.1257V54.1196V54.1135V54.1074V54.1013V54.0952V54.0891V54.083V54.0769V54.0708V54.0647V54.0586V54.0525V54.0464V54.0403V54.0342V54.0281V54.022V54.0159V54.0098V54.0037V53.9976V53.9915V53.9854V53.9792V53.9731V53.967V53.9609V53.9548V53.9487V53.9426V53.9365V53.9304V53.9243V53.9182V53.9121V53.906V53.8999V53.8938V53.8877V53.8816V53.8755V53.8694V53.8633V53.8572V53.8511V53.845V53.8389V53.8328V53.8267V53.8206V53.8145V53.8083V53.8022V53.7961V53.79V53.7839V53.7778V53.7717V53.7656V53.7595V53.7534V53.7473V53.7412V53.7351V53.729V53.7229V53.7168V53.7107V53.7046V53.6985V53.6924V53.6863V53.6802V53.6741V53.668V53.6619V53.6558V53.6497V53.6436V53.6375V53.6313V53.6252V53.6191V53.613V53.6069V53.6008V53.5947V53.5886V53.5825V53.5764V53.5703V53.5642V53.5581V53.552V53.5459V53.5398V53.5337V53.5276V53.5215V53.5154V53.5093V53.5032V53.4971V53.491V53.4849V53.4788V53.4727V53.4666V53.4604V53.4543V53.4482V53.4421V53.436V53.4299V53.4238V53.4177V53.4116V53.4055V53.3994V53.3933V53.3872V53.3811V53.375V38.125C18.0703 34.0035 18.4746 30.4527 19.2538 27.4489C20.0676 24.4304 21.2566 22.0809 22.7615 20.3189C24.0059 18.9374 25.5142 17.889 27.3131 17.1695L27.3225 17.1657L27.3318 17.1619C29.1727 16.4038 31.3438 16 33.8828 16C36.4004 16 38.5211 16.3684 40.2848 17.0522L40.2847 17.0523L40.2974 17.0571C42.0967 17.7408 43.5746 18.7505 44.7673 20.0836L44.7858 20.1043L44.8049 20.1244C46.0433 21.4336 47.0563 23.1197 47.8118 25.2352ZM23.547 82.9608L23.5373 82.9511L23.5275 82.9416L22.1328 84.375L23.547 82.9608ZM49.7578 45.0925V45.0976V45.1059V45.1142V45.1225V45.1308V45.1391V45.1474V45.1558V45.1641V45.1725V45.1808V45.1892V45.1975V45.2059V45.2143V45.2227V45.2311V45.2395V45.2479V45.2563V45.2648V45.2732V45.2816V45.2901V45.2985V45.307V45.3155V45.324V45.3324V45.3409V45.3494V45.3579V45.3664V45.375V45.3835V45.392V45.4006V45.4091V45.4177V45.4262V45.4348V45.4434V45.452V45.4606V45.4692V45.4778V45.4864V45.495V45.5036V45.5123V45.5209V45.5296V45.5382V45.5469V45.5555V45.5642V45.5729V45.5816V45.5903V45.599V45.6077V45.6164V45.6252V45.6339V45.6426V45.6514V45.6601V45.6689V45.6777V45.6865V45.6952V45.704V45.7128V45.7216V45.7305V45.7393V45.7481V45.7569V45.7658V45.7746V45.7835V45.7924V45.8012V45.8101V45.819V45.8279V45.8368V45.8457V45.8546V45.8635V45.8724V45.8814V45.0925Z" stroke="black" stroke-opacity="0.4" stroke-width="4"/>
</svg>
