<?xml version="1.0" encoding="UTF-8"?>
<svg fill="none" viewBox="0 0 73 101" xmlns="http://www.w3.org/2000/svg">
<path d="m18.704 4.9297-1.1159 60.587h-9.9118l-1.3128-60.587h12.341zm-5.9733 74.306c2.5381 0 4.6605 0.8534 6.3671 2.56 1.6629 1.7067 2.4944 3.7634 2.4944 6.1703 0 2.4506-0.8315 4.5511-2.4944 6.3015-1.7066 1.7067-3.829 2.56-6.3671 2.56-2.4944 0-4.573-0.8533-6.2359-2.56-1.6629-1.7504-2.4944-3.8509-2.4944-6.3015 0-2.4069 0.83145-4.4636 2.4944-6.1703 1.6629-1.7066 3.7415-2.56 6.2359-2.56zm53.235-74.306-1.1159 60.587h-9.9118l-1.3128-60.587h12.34zm-5.9733 74.306c2.5381 0 4.6386 0.8534 6.3015 2.56 1.7067 1.7067 2.56 3.7634 2.56 6.1703 0 2.4506-0.8533 4.5511-2.56 6.3015-1.6629 1.7067-3.7634 2.56-6.3015 2.56-2.4944 0-4.573-0.8533-6.2359-2.56-1.6629-1.7504-2.4944-3.8509-2.4944-6.3015 0-2.4069 0.8315-4.4636 2.4944-6.1703 1.6629-1.7066 3.7415-2.56 6.2359-2.56z" fill="#fff"/>
<path d="m20.703 4.9665 0.0376-2.0368h-16.422l0.04427 2.0433 1.3128 60.587 0.04239 1.9566h13.832l0.0362-1.9631 1.1158-60.587zm-0.1733 75.433-0.0091-0.0093-0.0092-0.0092c-2.1027-2.1027-4.7432-3.1458-7.7813-3.1458-3.0056 0-5.6098 1.0515-7.6684 3.1643-2.0309 2.0843-3.0619 4.6436-3.0619 7.566 0 2.9547 1.0225 5.5507 3.0444 7.679l0.00871 0.0092 0.00883 9e-3c2.0586 2.1128 4.6628 3.1643 7.6684 3.1643 3.0381 0 5.6786-1.043 7.7813-3.1458l0.0182-0.0181 0.0176-0.0186c2.0219-2.1283 3.0444-4.7243 3.0444-7.679 0-2.9224-1.031-5.4817-3.0619-7.566zm47.435-75.433 0.0375-2.0368h-16.422l0.0443 2.0433 1.3128 60.587 0.0424 1.9566h13.832l0.0362-1.9631 1.1159-60.587zm-15.659 90.678 0.0087 0.0092 0.0088 9e-3c2.0587 2.1128 4.6628 3.1643 7.6684 3.1643 3.0382 0 5.6678-1.0439 7.7335-3.1638 2.0718-2.1249 3.128-4.7269 3.128-7.6977 0-2.9348-1.0622-5.4966-3.1369-7.5756-2.0644-2.1137-4.6908-3.1547-7.7246-3.1547-3.0056 0-5.6097 1.0515-7.6684 3.1643-2.0308 2.0843-3.0619 4.6436-3.0619 7.566 0 2.9547 1.0225 5.5507 3.0444 7.679z" stroke="#000" stroke-opacity=".4" stroke-width="4"/>
</svg>
