<svg width="73" height="101" viewBox="0 0 73 101" fill="none" xmlns="http://www.w3.org/2000/svg">
<path d="M18.7036 4.92969L17.5877 65.5163H7.6759L6.36308 4.92969H18.7036ZM12.7303 79.2353C15.2684 79.2353 17.3908 80.0887 19.0974 81.7953C20.7603 83.502 21.5918 85.5587 21.5918 87.9656C21.5918 90.4162 20.7603 92.5167 19.0974 94.2671C17.3908 95.9738 15.2684 96.8271 12.7303 96.8271C10.2359 96.8271 8.15726 95.9738 6.49436 94.2671C4.83145 92.5167 4 90.4162 4 87.9656C4 85.5587 4.83145 83.502 6.49436 81.7953C8.15726 80.0887 10.2359 79.2353 12.7303 79.2353ZM65.9651 4.92969L64.8492 65.5163H54.9374L53.6246 4.92969H65.9651ZM59.9918 79.2353C62.5299 79.2353 64.6304 80.0887 66.2933 81.7953C68 83.502 68.8533 85.5587 68.8533 87.9656C68.8533 90.4162 68 92.5167 66.2933 94.2671C64.6304 95.9738 62.5299 96.8271 59.9918 96.8271C57.4974 96.8271 55.4188 95.9738 53.7559 94.2671C52.093 92.5167 51.2615 90.4162 51.2615 87.9656C51.2615 85.5587 52.093 83.502 53.7559 81.7953C55.4188 80.0887 57.4974 79.2353 59.9918 79.2353Z" fill="white"/>
<path d="M20.7032 4.96652L20.7408 2.92969H18.7036H6.36308H4.31927L4.36354 4.97301L5.67637 65.5597L5.71876 67.5163H7.6759H17.5877H19.5512L19.5874 65.5532L20.7032 4.96652ZM20.5299 80.3996L20.5208 80.3903L20.5116 80.3811C18.4089 78.2784 15.7684 77.2353 12.7303 77.2353C9.72469 77.2353 7.12051 78.2868 5.0619 80.3996C3.03102 82.4839 2 85.0432 2 87.9656C2 90.9203 3.02248 93.5163 5.04436 95.6446L5.05307 95.6538L5.0619 95.6628C7.12052 97.7756 9.72469 98.8271 12.7303 98.8271C15.7684 98.8271 18.4089 97.7841 20.5116 95.6813L20.5298 95.6632L20.5474 95.6446C22.5693 93.5163 23.5918 90.9203 23.5918 87.9656C23.5918 85.0432 22.5608 82.4839 20.5299 80.3996ZM67.9648 4.96652L68.0023 2.92969H65.9651H53.6246H51.5808L51.6251 4.97301L52.9379 65.5597L52.9803 67.5163H54.9374H64.8492H66.8127L66.8489 65.5532L67.9648 4.96652ZM52.3059 95.6446L52.3146 95.6538L52.3234 95.6628C54.3821 97.7756 56.9862 98.8271 59.9918 98.8271C63.03 98.8271 65.6596 97.7832 67.7253 95.6633C69.7971 93.5384 70.8533 90.9364 70.8533 87.9656C70.8533 85.0308 69.7911 82.469 67.7164 80.39C65.652 78.2763 63.0256 77.2353 59.9918 77.2353C56.9862 77.2353 54.3821 78.2868 52.3234 80.3996C50.2926 82.4839 49.2615 85.0432 49.2615 87.9656C49.2615 90.9203 50.284 93.5163 52.3059 95.6446Z" stroke="black" stroke-opacity="0.4" stroke-width="4"/>
</svg>
