<?xml version="1.0" encoding="UTF-8"?>
<svg fill="none" viewBox="0 0 138 118" xmlns="http://www.w3.org/2000/svg">
<path d="m42.991 111.9-8.7959-4.398 18.445-30.917h-48.64v-9.5836h54.351l9.1897-15.36h-63.54v-9.5179h69.251l21.858-36.628 8.5333 4.2667-19.233 32.361h49.428v9.5179h-55.073l-9.1241 15.36h64.197v9.5836h-69.842l-21.005 35.315z" fill="#fff"/>
<path d="m42.096 113.69 1.663 0.831 0.9504-1.597 20.424-34.338h70.705v-13.584h-62.683l6.748-11.36h55.935v-13.518h-47.913l17.437-29.339 1.099-1.8489-1.924-0.96182-10.193-5.0969-0.9514 1.5942-21.276 35.653h-70.116v13.518h62.013l-6.7966 11.36h-55.217v13.584h47.118l-16.641 27.892-1.1038 1.851 1.9269 0.963 8.7959 4.398z" stroke="#000" stroke-opacity=".4" stroke-width="4"/>
</svg>
