<svg width="138" height="118" viewBox="0 0 138 118" fill="none" xmlns="http://www.w3.org/2000/svg">
<path d="M42.9908 111.904L34.1949 107.506L52.64 76.5892H4V67.0056H58.3508L67.5405 51.6456H4V42.1277H73.2513L95.1097 5.5L103.643 9.76667L84.4102 42.1277H133.838V51.6456H78.7651L69.641 67.0056H133.838V76.5892H63.9959L42.9908 111.904Z" fill="white"/>
<path d="M42.0963 113.693L43.7593 114.524L44.7097 112.927L65.1333 78.5892H133.838H135.838V76.5892V67.0056V65.0056H133.838H73.1553L79.9033 53.6456H133.838H135.838V51.6456V42.1277V40.1277H133.838H87.9254L105.362 10.7885L106.461 8.93964L104.537 7.97782L96.0042 3.71115L94.3437 2.8809L93.3923 4.47508L72.1158 40.1277H4H2V42.1277V51.6456V53.6456H4H64.0133L57.2167 65.0056H4H2V67.0056V76.5892V78.5892H4H49.1179L32.4773 106.481L31.3735 108.332L33.3004 109.295L42.0963 113.693Z" stroke="black" stroke-opacity="0.4" stroke-width="4"/>
</svg>
