<svg width="218" height="68" viewBox="0 0 218 68" fill="none" xmlns="http://www.w3.org/2000/svg">
<path d="M213.445 4.5V14.0179H4.83789V4.5H213.445ZM213.445 29.4436V38.9615H4.83789V29.4436H213.445ZM213.445 54.3215V63.9051H4.83789V54.3215H213.445Z" fill="white"/>
<path d="M215.445 4.5V2.5H213.445H4.83789H2.83789V4.5V14.0179V16.0179H4.83789H213.445H215.445V14.0179V4.5ZM215.445 29.4436V27.4436H213.445H4.83789H2.83789V29.4436V38.9615V40.9615H4.83789H213.445H215.445V38.9615V29.4436ZM215.445 54.3215V52.3215H213.445H4.83789H2.83789V54.3215V63.9051V65.9051H4.83789H213.445H215.445V63.9051V54.3215Z" stroke="black" stroke-opacity="0.4" stroke-width="4"/>
</svg>
