<svg width="135" height="92" viewBox="0 0 135 92" fill="none" xmlns="http://www.w3.org/2000/svg">
<path d="M4 38.1997V28.6161H67.7374V38.1997H4ZM4 63.1433V53.5597H67.7374V63.1433H4Z" fill="white"/>
<path d="M65.0926 63.1433V53.5597H108.284L115.308 45.8797L108.284 38.1997H65.0926V28.6161H101.523C99.5541 27.5221 97.9568 26.4062 96.7315 25.2684C95.55 24.1306 94.456 22.971 93.4495 21.7894L85.2444 12.8622L93.3839 5.9043L129.093 45.8797L93.3839 85.8551L85.2444 78.8971L93.4495 69.9699C94.456 68.7884 95.55 67.6287 96.7315 66.491C97.9568 65.3532 99.5541 64.2373 101.523 63.1433H65.0926Z" fill="white"/>
<path d="M2 38.1997V40.1997H4H63.0926H65.0926H67.7374H69.7374H107.403L112.598 45.8797L107.403 51.5597H69.7374H67.7374H65.0926H63.0926H4H2V53.5597V63.1433V65.1433H4H63.0926H65.0926H67.7374H69.7374H95.248C94.0679 66.2852 92.9688 67.452 91.9518 68.6439L83.7719 77.5437L82.3689 79.0702L83.9448 80.4174L92.0843 87.3753L93.5718 88.6469L94.8754 87.1874L130.584 47.2121L131.774 45.8797L130.584 44.5473L94.8754 4.57192L93.5718 3.1125L92.0843 4.38405L83.9448 11.342L82.3689 12.6892L83.7719 14.2157L91.9518 23.1154C92.9688 24.3073 94.0679 25.4741 95.248 26.6161H69.7374H67.7374H65.0926H63.0926H4H2V28.6161V38.1997Z" stroke="black" stroke-opacity="0.4" stroke-width="4"/>
</svg>
