<?xml version="1.0" encoding="UTF-8"?>
<svg fill="none" viewBox="0 0 135 92" xmlns="http://www.w3.org/2000/svg">
<path d="M4 38.1997V28.6161H67.7374V38.1997H4ZM4 63.1433V53.5597H67.7374V63.1433H4Z" fill="#fff"/>
<path d="m65.093 63.143v-9.5836h43.191l7.024-7.68-7.024-7.68h-43.191v-9.5836h36.43c-1.9689-1.094-3.5662-2.2099-4.7915-3.3477-1.1815-1.1378-2.2755-2.2974-3.282-3.479l-8.2051-8.9272 8.1395-6.9579 35.709 39.975-35.709 39.975-8.1395-6.958 8.2051-8.9272c1.0065-1.1815 2.1005-2.3412 3.282-3.4789 1.2253-1.1378 2.8226-2.2537 4.7915-3.3477h-36.43z" fill="#fff"/>
<path d="m2 38.2v2h105.4l5.195 5.68-5.195 5.68h-105.4v13.584h93.248c-1.1801 1.1419-2.2792 2.3087-3.2962 3.5006l-9.5829 10.426 9.7154 8.3051 1.4875 1.2716 1.3036-1.4595 35.709-39.975 1.19-1.3324-1.19-1.3324-35.709-39.975-1.3036-1.4594-11.203 9.5767 9.5829 10.426c1.017 1.1919 2.1161 2.3587 3.2962 3.5007h-93.248v11.584z" stroke="#000" stroke-opacity=".4" stroke-width="4"/>
</svg>
