<?xml version="1.0" encoding="UTF-8"?>
<svg fill="none" viewBox="0 0 128 132" xmlns="http://www.w3.org/2000/svg">
<path d="m44.938 127.69c-4.0417-0.126-7.5417-1.063-10.5-2.813s-5.4167-4.063-7.375-6.937c-1.875-2.75-3.2917-5.834-4.25-9.25-0.9583-3.376-1.4375-6.73-1.4375-10.063v-10.562c0-6-1.4375-10.354-4.3125-13.062-2.8333-2.7083-7.1875-4.0833-13.062-4.125v-9.0625c5.875 0 10.229-1.3333 13.062-4 2.875-2.7083 4.3125-7.0833 4.3125-13.125v-10.625c0-3.375 0.4375-6.8125 1.3125-10.312 0.9167-3.5417 2.3542-6.7083 4.3125-9.5 1.8333-2.6667 4.2292-4.8333 7.1875-6.5 2.9583-1.7083 6.5417-2.625 10.75-2.75l1.3125 7.1875c-3 0.0833-5.3958 0.7917-7.1875 2.125-1.75 1.3333-3.0625 3.0208-3.9375 5.0625-0.9167 2.0833-1.5 4.4167-1.75 7s-0.375 5.1458-0.375 7.6875v10.625c0 5-1.1667 9.3958-3.5 13.188-2.2917 3.75-5.8542 6.6042-10.688 8.5625 4.8333 1.9167 8.3958 4.7708 10.688 8.5625 2.2917 3.75 3.4583 8.1042 3.5 13.062v10.562c0 2.583 0.2083 5.146 0.625 7.687 0.4167 2.584 1.1458 4.896 2.1875 6.938 1 2.083 2.3333 3.792 4 5.125 1.7083 1.333 3.8542 2.042 6.4375 2.125l-1.3125 7.188z" fill="#fff"/>
<path d="m80.875 120.5c2.5417-0.083 4.6667-0.792 6.375-2.125s3.0833-3.042 4.125-5.125c1-2.042 1.7083-4.354 2.125-6.938 0.4583-2.541 0.6875-5.104 0.6875-7.687v-10.562c0-3.2917 0.4792-6.3333 1.4375-9.125 1-2.7917 2.5208-5.2083 4.563-7.25 1.083-1.0833 2.291-2.0625 3.624-2.9375 1.376-0.875 2.876-1.6458 4.5-2.3125-1.666-0.6667-3.208-1.4583-4.624-2.375-1.376-0.9167-2.584-1.9375-3.626-3.0625-1.9995-2.0833-3.4787-4.5-4.437-7.25-0.9583-2.7917-1.4375-5.8125-1.4375-9.0625v-10.625c0-2.5417-0.1458-5.1042-0.4375-7.6875-0.25-2.5833-0.8125-4.9167-1.6875-7-0.9167-2.0417-2.25-3.7292-4-5.0625s-4.125-2.0417-7.125-2.125l1.25-7.1875c4.0417 0.125 7.5 0.97917 10.375 2.5625 2.9167 1.5833 5.3125 3.6458 7.1875 6.1875 2.125 2.875 3.646 6.1042 4.562 9.6875 0.959 3.5833 1.438 7.125 1.438 10.625v10.625c0 2.5 0.229 4.7083 0.688 6.625 0.5 1.875 1.229 3.5 2.187 4.875 1.375 1.9583 3.271 3.3958 5.687 4.3125 2.459 0.875 5.396 1.3125 8.813 1.3125v9.0625c-3 0.0417-5.625 0.4167-7.875 1.125-2.208 0.6667-4.021 1.7292-5.438 3.1875-1.374 1.4167-2.395 3.1875-3.062 5.3125s-1 4.6458-1 7.5625v10.562c0 3.333-0.458 6.687-1.375 10.063-0.917 3.416-2.333 6.52-4.25 9.312-1.9583 2.792-4.4167 5.083-7.375 6.875s-6.4792 2.729-10.562 2.813l-1.3125-7.188z" fill="#fff"/>
<path d="m44.876 129.69 1.7201 0.053 0.3092-1.693 1.3125-7.188 0.4169-2.283-2.3199-0.075c-2.2383-0.072-3.9497-0.674-5.2621-1.695-1.4089-1.13-2.5578-2.59-3.4369-4.421l-0.0105-0.022-0.011-0.022c-0.9346-1.832-1.6064-3.941-1.9945-6.347l-8e-4 -5e-3c-0.3991-2.434-0.5987-4.889-0.5987-7.364v-10.571l-1e-4 -0.0084c-0.0443-5.2714-1.2886-9.9882-3.7909-14.085-1.88-3.1089-4.5093-5.6135-7.8244-7.5357 3.3117-1.9348 5.9397-4.4285 7.8203-7.5048 2.5494-4.1439 3.7951-8.9109 3.7951-14.233v-10.625c0-2.476 0.1218-4.9742 0.3657-7.4949 0.2324-2.401 0.7699-4.5234 1.5899-6.3871l0.0039-0.0088 0.0038-0.0089c0.7389-1.724 1.8339-3.1314 3.302-4.2523 1.3651-1.0125 3.3182-1.6482 6.0402-1.7238l2.3308-0.0647-0.4188-2.2938-1.3125-7.1875-0.3088-1.6909-1.7181 0.05103c-4.4591 0.13245-8.3792 1.1072-11.682 3.0118-3.2035 1.8065-5.8273 4.1724-7.8393 7.0964-2.1029 2.9998-3.6345 6.3863-4.606 10.14l-0.0021 8e-3 -2e-3 8e-3c-0.9119 3.6478-1.3722 7.2482-1.3722 10.798v10.625c0 5.7788-1.3803 9.4987-3.6832 11.669-2.3116 2.1756-6.0725 3.4564-11.692 3.4564h-2v13.048l1.9858 0.014c5.6144 0.0399 9.3775 1.3559 11.695 3.5708l0.0053 0.0051 0.0053 5e-3c2.3057 2.172 3.6839 5.8739 3.6839 11.607v10.562c0 3.527 0.5071 7.063 1.5127 10.606 1.013 3.61 2.5175 6.893 4.5218 9.832 2.1216 3.115 4.7956 5.632 8.0097 7.533 3.296 1.95 7.1373 2.957 11.456 3.091zm35.934-11.186-2.3187 0.076 0.4167 2.282 1.3125 7.188 0.3059 1.675 1.7024-0.035c4.3708-0.089 8.2485-1.097 11.558-3.101 3.192-1.934 5.8563-4.415 7.9759-7.437l6e-3 -9e-3 6e-3 -8e-3c2.05-2.986 3.559-6.299 4.532-9.924 0.96-3.536 1.444-7.065 1.444-10.583v-10.562c0-2.7727 0.318-5.0819 0.908-6.9638 0.586-1.8655 1.459-3.353 2.59-4.5182 1.149-1.1832 2.653-2.084 4.58-2.6658l0.011-0.0035 0.012-0.0035c2.022-0.6366 4.446-0.9932 7.302-1.0329l1.972-0.0274v-13.035h-2c-3.245 0-5.938-0.4154-8.122-1.1898-2.064-0.7863-3.617-1.9841-4.74-3.5822-0.801-1.1503-1.438-2.546-1.886-4.2183-0.41-1.7247-0.627-3.7632-0.627-6.1347v-10.625c0-3.6812-0.504-7.393-1.503-11.131-0.978-3.8198-2.606-7.2819-4.888-10.368-2.0562-2.7879-4.6786-5.0395-7.8371-6.7551-3.208-1.7654-6.9891-2.6742-11.273-2.8067l-1.7348-0.05366-0.2974 1.71-1.25 7.1875-0.3961 2.2777 2.311 0.0642c2.7307 0.0759 4.6536 0.7149 5.9684 1.7167 1.4738 1.1228 2.5956 2.536 3.3777 4.2688 0.7812 1.8672 1.2987 3.993 1.5312 6.3954l0.0015 0.0159 0.0018 0.0159c0.2835 2.5105 0.4249 4.9981 0.4249 7.4631v10.625c0 3.4487 0.5089 6.6912 1.5458 9.7119l0.0031 0.0087c1.0501 3.0135 2.6763 5.6743 4.8708 7.9639 1.1537 1.2438 2.4808 2.3609 3.9708 3.3546l0.012 0.0076 0.011 0.0074c0.376 0.2436 0.761 0.4787 1.152 0.7053-0.344 0.1993-0.682 0.4046-1.014 0.6158l-0.012 0.0075-0.012 0.0077c-1.443 0.9469-2.758 2.0116-3.9417 3.1954-2.2564 2.2563-3.9343 4.9277-5.0312 7.9897l-0.0044 0.0126-0.0043 0.0125c-1.0379 3.0233-1.5459 6.287-1.5459 9.7744v10.562c0 2.464-0.2186 4.908-0.6558 7.333l-0.0032 0.018-3e-3 0.018c-0.3894 2.414-1.0437 4.531-1.9431 6.369-0.9183 1.834-2.1084 3.3-3.5629 4.435-1.3194 1.03-3.0158 1.631-5.21 1.703z" stroke="#000" stroke-opacity=".4" stroke-width="4"/>
</svg>
