<svg width="128" height="132" viewBox="0 0 128 132" fill="none" xmlns="http://www.w3.org/2000/svg">
<path d="M44.9375 127.688C40.8958 127.562 37.3958 126.625 34.4375 124.875C31.4792 123.125 29.0208 120.812 27.0625 117.938C25.1875 115.188 23.7708 112.104 22.8125 108.688C21.8542 105.312 21.375 101.958 21.375 98.625V88.0625C21.375 82.0625 19.9375 77.7083 17.0625 75C14.2292 72.2917 9.875 70.9167 4 70.875V61.8125C9.875 61.8125 14.2292 60.4792 17.0625 57.8125C19.9375 55.1042 21.375 50.7292 21.375 44.6875V34.0625C21.375 30.6875 21.8125 27.25 22.6875 23.75C23.6042 20.2083 25.0417 17.0417 27 14.25C28.8333 11.5833 31.2292 9.41667 34.1875 7.75C37.1458 6.04167 40.7292 5.125 44.9375 5L46.25 12.1875C43.25 12.2708 40.8542 12.9792 39.0625 14.3125C37.3125 15.6458 36 17.3333 35.125 19.375C34.2083 21.4583 33.625 23.7917 33.375 26.375C33.125 28.9583 33 31.5208 33 34.0625V44.6875C33 49.6875 31.8333 54.0833 29.5 57.875C27.2083 61.625 23.6458 64.4792 18.8125 66.4375C23.6458 68.3542 27.2083 71.2083 29.5 75C31.7917 78.75 32.9583 83.1042 33 88.0625V98.625C33 101.208 33.2083 103.771 33.625 106.312C34.0417 108.896 34.7708 111.208 35.8125 113.25C36.8125 115.333 38.1458 117.042 39.8125 118.375C41.5208 119.708 43.6667 120.417 46.25 120.5L44.9375 127.688Z" fill="white"/>
<path d="M80.875 120.5C83.4167 120.417 85.5417 119.708 87.25 118.375C88.9583 117.042 90.3333 115.333 91.375 113.25C92.375 111.208 93.0833 108.896 93.5 106.312C93.9583 103.771 94.1875 101.208 94.1875 98.625V88.0625C94.1875 84.7708 94.6667 81.7292 95.625 78.9375C96.625 76.1458 98.1458 73.7292 100.188 71.6875C101.271 70.6042 102.479 69.625 103.812 68.75C105.188 67.875 106.688 67.1042 108.312 66.4375C106.646 65.7708 105.104 64.9792 103.688 64.0625C102.312 63.1458 101.104 62.125 100.062 61C98.0625 58.9167 96.5833 56.5 95.625 53.75C94.6667 50.9583 94.1875 47.9375 94.1875 44.6875V34.0625C94.1875 31.5208 94.0417 28.9583 93.75 26.375C93.5 23.7917 92.9375 21.4583 92.0625 19.375C91.1458 17.3333 89.8125 15.6458 88.0625 14.3125C86.3125 12.9792 83.9375 12.2708 80.9375 12.1875L82.1875 5C86.2292 5.125 89.6875 5.97917 92.5625 7.5625C95.4792 9.14583 97.875 11.2083 99.75 13.75C101.875 16.625 103.396 19.8542 104.312 23.4375C105.271 27.0208 105.75 30.5625 105.75 34.0625V44.6875C105.75 47.1875 105.979 49.3958 106.438 51.3125C106.938 53.1875 107.667 54.8125 108.625 56.1875C110 58.1458 111.896 59.5833 114.312 60.5C116.771 61.375 119.708 61.8125 123.125 61.8125V70.875C120.125 70.9167 117.5 71.2917 115.25 72C113.042 72.6667 111.229 73.7292 109.812 75.1875C108.438 76.6042 107.417 78.375 106.75 80.5C106.083 82.625 105.75 85.1458 105.75 88.0625V98.625C105.75 101.958 105.292 105.312 104.375 108.688C103.458 112.104 102.042 115.208 100.125 118C98.1667 120.792 95.7083 123.083 92.75 124.875C89.7917 126.667 86.2708 127.604 82.1875 127.688L80.875 120.5Z" fill="white"/>
<path d="M44.8757 129.687L46.5958 129.74L46.905 128.047L48.2175 120.859L48.6344 118.576L46.3145 118.501C44.0762 118.429 42.3648 117.827 41.0524 116.806C39.6435 115.676 38.4946 114.216 37.6155 112.385L37.605 112.363L37.594 112.341C36.6594 110.509 35.9876 108.4 35.5995 105.994L35.5987 105.989C35.1996 103.555 35 101.1 35 98.625V88.0625V88.0541L34.9999 88.0457C34.9556 82.7743 33.7113 78.0575 31.209 73.9611C29.329 70.8522 26.6997 68.3476 23.3846 66.4254C26.6963 64.4906 29.3243 61.9969 31.2049 58.9206C33.7543 54.7767 35 50.0097 35 44.6875V34.0625C35 31.5865 35.1218 29.0883 35.3657 26.5676C35.5981 24.1666 36.1356 22.0442 36.9556 20.1805L36.9595 20.1717L36.9633 20.1628C37.7022 18.4388 38.7972 17.0314 40.2653 15.9105C41.6304 14.898 43.5835 14.2623 46.3055 14.1867L48.6363 14.122L48.2175 11.8282L46.905 4.64072L46.5962 2.94985L44.8781 3.00088C40.419 3.13333 36.4989 4.10813 33.1966 6.01268C29.9931 7.81919 27.3693 10.1851 25.3573 13.1091C23.2544 16.1089 21.7228 19.4954 20.7513 23.2489L20.7492 23.2569L20.7472 23.2649C19.8353 26.9127 19.375 30.5131 19.375 34.0625V44.6875C19.375 50.4663 17.9947 54.1862 15.6918 56.3561C13.3802 58.5317 9.61929 59.8125 4 59.8125H2V61.8125V70.875V72.8609L3.98582 72.8749C9.60018 72.9148 13.3633 74.2308 15.6805 76.4457L15.6858 76.4508L15.6911 76.4558C17.9968 78.6278 19.375 82.3297 19.375 88.0625V98.625C19.375 102.152 19.8821 105.688 20.8877 109.231C21.9007 112.841 23.4052 116.124 25.4095 119.063C27.5311 122.178 30.2051 124.695 33.4192 126.596C36.7152 128.546 40.5565 129.553 44.8757 129.687ZM80.8095 118.501L78.4908 118.577L78.9075 120.859L80.22 128.047L80.5259 129.722L82.2283 129.687C86.5991 129.598 90.4768 128.59 93.7861 126.586C96.9781 124.652 99.6424 122.171 101.762 119.149L101.768 119.14L101.774 119.132C103.824 116.146 105.333 112.833 106.306 109.208C107.266 105.672 107.75 102.143 107.75 98.625V88.0625C107.75 85.2898 108.068 82.9806 108.658 81.0987C109.244 79.2332 110.117 77.7457 111.248 76.5805C112.397 75.3973 113.901 74.4965 115.828 73.9147L115.839 73.9112L115.851 73.9077C117.873 73.2711 120.297 72.9145 123.153 72.8748L125.125 72.8474V70.875V61.8125V59.8125H123.125C119.88 59.8125 117.187 59.3971 115.003 58.6227C112.939 57.8364 111.386 56.6386 110.263 55.0405C109.462 53.8902 108.825 52.4945 108.377 50.8222C107.967 49.0975 107.75 47.059 107.75 44.6875V34.0625C107.75 30.3813 107.246 26.6695 106.247 22.9312C105.269 19.1114 103.641 15.6493 101.359 12.5627C99.3028 9.77477 96.6804 7.52318 93.5219 5.80764C90.3139 4.04221 86.5328 3.13343 82.2493 3.00096L80.5145 2.9473L80.2171 4.65732L78.9671 11.8448L78.571 14.1225L80.882 14.1867C83.6127 14.2626 85.5356 14.9016 86.8504 15.9034C88.3242 17.0262 89.446 18.4394 90.2281 20.1722C91.0093 22.0394 91.5268 24.1652 91.7593 26.5676L91.7608 26.5835L91.7626 26.5994C92.0461 29.1099 92.1875 31.5975 92.1875 34.0625V44.6875C92.1875 48.1362 92.6964 51.3787 93.7333 54.3994L93.7364 54.4081C94.7865 57.4216 96.4127 60.0824 98.6072 62.372C99.7609 63.6158 101.088 64.7329 102.578 65.7266L102.59 65.7342L102.601 65.7416C102.977 65.9852 103.362 66.2203 103.753 66.4469C103.409 66.6462 103.071 66.8515 102.739 67.0627L102.727 67.0702L102.715 67.0779C101.272 68.0248 99.957 69.0895 98.7733 70.2733C96.5169 72.5296 94.839 75.201 93.7421 78.263L93.7377 78.2756L93.7334 78.2881C92.6955 81.3114 92.1875 84.5751 92.1875 88.0625V98.625C92.1875 101.089 91.9689 103.533 91.5317 105.958L91.5285 105.976L91.5255 105.994C91.1361 108.408 90.4818 110.525 89.5824 112.363C88.6641 114.197 87.474 115.663 86.0195 116.798C84.7001 117.828 83.0037 118.429 80.8095 118.501Z" stroke="black" stroke-opacity="0.4" stroke-width="4"/>
</svg>
