<svg width="142" height="103" viewBox="0 0 142 103" fill="none" xmlns="http://www.w3.org/2000/svg">
<path d="M55.3315 18.7799L60.6484 27.2476L14.3058 55.6702L60.6484 84.3553L54.7407 92.4292L4.85352 61.2497V49.9594L55.3315 18.7799Z" fill="white"/>
<path d="M107.3 4.92969C112.989 4.92969 117.912 5.95806 122.069 8.01482C126.226 10.0716 129.421 12.8066 131.653 16.2199C133.928 19.6333 135.066 23.3967 135.066 27.5102C135.066 31.1861 134.257 34.5119 132.637 37.4876C131.018 40.4196 128.874 42.8483 126.205 44.7738C123.535 46.6993 120.603 47.9683 117.409 48.581C120.953 48.8435 124.279 49.85 127.386 51.6005C130.537 53.3071 133.075 55.7577 135 58.9523C136.97 62.1468 137.954 66.0634 137.954 70.702C137.954 75.9095 136.641 80.6138 134.016 84.8148C131.39 88.9721 127.714 92.2541 122.988 94.661C118.306 97.0678 112.836 98.2712 106.578 98.2712C101.502 98.2712 96.4692 97.3085 91.4804 95.383C86.4917 93.4575 82.2688 90.3943 78.8117 86.1933L86.2292 80.1543C88.811 83.1738 91.8743 85.4275 95.4189 86.9153C99.0073 88.4032 102.639 89.1471 106.315 89.1471C112.617 89.1471 117.54 87.5061 121.085 84.224C124.629 80.8982 126.401 76.3909 126.401 70.702C126.401 64.2692 124.607 59.8056 121.019 57.3112C117.474 54.8169 113.033 53.5697 107.694 53.5697H100.079L101.458 44.8394H106.775C109.707 44.8394 112.464 44.2705 115.046 43.1328C117.671 41.995 119.815 40.2664 121.478 37.9471C123.141 35.6278 123.973 32.674 123.973 29.0856C123.973 24.0969 122.31 20.2897 118.984 17.664C115.658 15.0384 111.632 13.7256 106.906 13.7256C102.968 13.7256 99.5324 14.4258 96.6004 15.8261C93.6685 17.1827 90.7146 19.2613 87.7389 22.062L81.6343 15.301C85.4852 11.6688 89.5768 9.0432 93.9092 7.42405C98.2415 5.76114 102.705 4.92969 107.3 4.92969Z" fill="white"/>
<path d="M57.0252 17.7164L55.9695 16.0351L54.2804 17.0784L3.80248 48.2579L2.85352 48.844V49.9594V61.2497V62.3582L3.79352 62.9457L53.6807 94.1252L55.257 95.1104L56.3548 93.6102L62.2624 85.5364L63.5386 83.7922L61.701 82.6547L18.1185 55.678L61.694 28.9525L63.417 27.8958L62.3422 26.1841L57.0252 17.7164ZM124.627 48.1188C125.57 47.6109 126.486 47.0364 127.375 46.3959C130.288 44.2944 132.629 41.6404 134.388 38.4545L134.394 38.4435C136.186 35.1499 137.066 31.4909 137.066 27.5102C137.066 23.0061 135.814 18.859 133.322 15.1182C130.869 11.3703 127.386 8.41369 122.956 6.2222C118.468 4.00162 113.228 2.92969 107.3 2.92969C102.46 2.92969 97.7568 3.80602 93.2006 5.55376C88.5882 7.27899 84.2766 10.0596 80.262 13.846L78.8384 15.1888L80.1498 16.6413L86.2545 23.4023L87.6228 24.9178L89.1096 23.5184C91.9683 20.8278 94.7472 18.8873 97.4403 17.6412L97.4514 17.6361L97.4624 17.6308C100.074 16.3834 103.204 15.7256 106.906 15.7256C111.237 15.7256 114.813 16.919 117.745 19.2338C120.502 21.4107 121.973 24.5873 121.973 29.0856C121.973 32.3643 121.216 34.8808 119.853 36.7817C118.402 38.8059 116.545 40.3034 114.25 41.2976L114.239 41.3026C111.921 42.324 109.44 42.8394 106.775 42.8394H101.458H99.7489L99.4823 44.5275L98.1039 53.2578L97.7388 55.5697H100.079H107.694C112.717 55.5697 116.732 56.7398 119.868 58.9469L119.877 58.9534C122.706 60.9197 124.401 64.5968 124.401 70.702C124.401 75.9382 122.79 79.8785 119.721 82.761C116.648 85.6039 112.268 87.1471 106.315 87.1471C102.918 87.1471 99.5473 86.4614 96.1892 85.0696C92.9437 83.7066 90.1344 81.644 87.7492 78.8545L86.4804 77.3707L84.9664 78.6033L77.549 84.6423L75.9899 85.9117L77.2674 87.4641C80.9394 91.9263 85.4444 95.1971 90.7603 97.2489C95.9663 99.2582 101.242 100.271 106.578 100.271C113.093 100.271 118.886 99.0175 123.899 96.4413C128.918 93.8846 132.875 90.367 135.707 85.8828L135.712 85.8748C138.547 81.3393 139.954 76.2643 139.954 70.702C139.954 65.7837 138.909 61.4862 136.708 57.9109C134.61 54.4331 131.821 51.7316 128.353 49.8499C127.143 49.169 125.901 48.5918 124.627 48.1188Z" stroke="black" stroke-opacity="0.4" stroke-width="4"/>
</svg>
