<?xml version="1.0" encoding="UTF-8"?>
<svg fill="none" viewBox="0 0 142 103" xmlns="http://www.w3.org/2000/svg">
<path d="m55.332 18.78 5.3169 8.4677-46.343 28.423 46.343 28.685-5.9077 8.0739-49.887-31.18v-11.29l50.478-31.18z" fill="#fff"/>
<path d="m107.3 4.9297c5.689 0 10.612 1.0284 14.769 3.0851 4.157 2.0568 7.352 4.7918 9.584 8.2051 2.275 3.4134 3.413 7.1768 3.413 11.29 0 3.6759-0.809 7.0017-2.429 9.9774-1.619 2.932-3.763 5.3607-6.432 7.2862-2.67 1.9255-5.602 3.1945-8.796 3.8072 3.544 0.2625 6.87 1.269 9.977 3.0195 3.151 1.7066 5.689 4.1572 7.614 7.3518 1.97 3.1945 2.954 7.1111 2.954 11.75 0 5.2075-1.313 9.9118-3.938 14.113-2.626 4.1573-6.302 7.4393-11.028 9.8462-4.682 2.4068-10.152 3.6102-16.41 3.6102-5.076 0-10.109-0.9627-15.098-2.8882-4.9887-1.9255-9.2116-4.9887-12.669-9.1897l7.4175-6.039c2.5818 3.0195 5.6451 5.2732 9.1897 6.761 3.5884 1.4879 7.2201 2.2318 10.896 2.2318 6.302 0 11.225-1.641 14.77-4.9231 3.544-3.3258 5.316-7.8331 5.316-13.522 0-6.4328-1.794-10.896-5.382-13.391-3.545-2.4943-7.986-3.7415-13.325-3.7415h-7.615l1.379-8.7303h5.317c2.932 0 5.689-0.5689 8.271-1.7066 2.625-1.1378 4.769-2.8664 6.432-5.1857s2.495-5.2731 2.495-8.8615c0-4.9887-1.663-8.7959-4.989-11.422-3.326-2.6256-7.352-3.9384-12.078-3.9384-3.938 0-7.3736 0.7002-10.306 2.1005-2.9319 1.3566-5.8858 3.4352-8.8615 6.2359l-6.1046-6.761c3.8509-3.6322 7.9425-6.2578 12.275-7.877 4.3323-1.6629 8.7958-2.4944 13.391-2.4944z" fill="#fff"/>
<path d="m57.025 17.716-1.0557-1.6813-52.167 32.223-0.94896 0.5861v13.514l50.827 31.767 1.5763 0.9852 1.0978-1.5002 7.1838-9.818-45.42-28.114 43.576-26.726 1.723-1.0567-6.3918-10.179zm67.602 30.402c0.943-0.5079 1.859-1.0824 2.748-1.7229 2.913-2.1015 5.254-4.7555 7.013-7.9414l6e-3 -0.011c1.792-3.2936 2.672-6.9526 2.672-10.933 0-4.5041-1.252-8.6512-3.744-12.392-2.453-3.7479-5.936-6.7045-10.366-8.896-4.488-2.2206-9.728-3.2925-15.656-3.2925-4.84 0-9.5432 0.87633-14.099 2.6241-4.6124 1.7252-8.924 4.5058-12.939 8.2922l-1.4236 1.3428 1.3114 1.4525 6.1047 6.761 1.3683 1.5155 1.4868-1.3994c2.8587-2.6906 5.6376-4.6311 8.3307-5.8772l0.0111-0.0051 0.011-0.0053c2.6116-1.2474 5.7416-1.9052 9.4436-1.9052 4.331 0 7.907 1.1934 10.839 3.5082 2.757 2.1769 4.228 5.3535 4.228 9.8518 0 3.2787-0.757 5.7952-2.12 7.6961-1.451 2.0242-3.308 3.5217-5.603 4.5159l-0.011 5e-3c-2.318 1.0214-4.799 1.5368-7.464 1.5368h-7.0261l-0.2666 1.6881-1.3784 8.7303-0.3651 2.3119h9.9552c5.023 0 9.038 1.1701 12.174 3.3772l9e-3 0.0065c2.829 1.9663 4.524 5.6434 4.524 11.749 0 5.2362-1.611 9.1765-4.68 12.059-3.073 2.8429-7.453 4.3861-13.406 4.3861-3.397 0-6.7677-0.6857-10.126-2.0775-3.2455-1.363-6.0548-3.4256-8.44-6.2151l-1.2688-1.4838-10.49 8.541 1.2775 1.5524c3.672 4.4622 8.177 7.733 13.493 9.7848 5.206 2.0093 10.482 3.0221 15.818 3.0221 6.515 0 12.308-1.2535 17.321-3.8297 5.019-2.5567 8.976-6.0743 11.808-10.558l5e-3 -8e-3c2.835-4.5355 4.242-9.6105 4.242-15.173 0-4.9183-1.045-9.2158-3.246-12.791-2.098-3.4778-4.887-6.1793-8.355-8.061-1.21-0.6809-2.452-1.2581-3.726-1.7311z" stroke="#000" stroke-opacity=".4" stroke-width="4"/>
</svg>
