<svg width="130" height="103" viewBox="0 0 130 103" fill="none" xmlns="http://www.w3.org/2000/svg">
<path d="M34.2811 4.9043C39.6637 4.9043 44.3023 5.86703 48.197 7.7925C52.048 9.71797 55.0018 12.2342 57.0586 15.3412C59.1153 18.4045 60.1437 21.6646 60.1437 25.1217C60.1437 29.3228 59.356 32.758 57.7806 35.4274C56.2052 38.053 54.236 40.2848 51.8729 42.1228C49.5099 43.9607 47.1687 45.733 44.8493 47.4397C42.4863 49.1463 40.517 51.1593 38.9417 53.4787C37.3225 55.798 36.5129 58.7737 36.5129 62.4058V66.9351H25.4196V61.7494C25.4196 57.5046 26.2073 53.9819 27.7827 51.1812C29.3143 48.3805 31.2398 45.9956 33.5591 44.0263C35.8784 42.0571 38.1977 40.241 40.517 38.5781C42.8364 36.8715 44.7837 35.0335 46.3591 33.0643C47.9345 31.0951 48.7222 28.6663 48.7222 25.7781C48.7222 22.0147 47.2343 19.1265 44.2586 17.1135C41.2829 15.1005 37.5851 14.094 33.1652 14.094C30.0582 14.094 26.8637 14.8599 23.5817 16.3915C20.2996 17.8793 17.302 20.3081 14.5888 23.6776L6.71191 17.9012C10.5191 13.3939 14.742 10.1118 19.3806 8.05507C24.0193 5.95455 28.9861 4.9043 34.2811 4.9043ZM125.522 38.7094V48.2274H55.7458L67.3642 38.7094H125.522ZM125.522 63.5874V73.171H47.2781V63.5874H125.522ZM31.2617 80.654C33.7998 80.654 35.9222 81.5074 37.6288 83.214C39.3355 84.9207 40.1888 86.9775 40.1888 89.3843C40.1888 91.8349 39.3355 93.9354 37.6288 95.6858C35.9222 97.3925 33.7998 98.2458 31.2617 98.2458C28.8111 98.2458 26.7543 97.3925 25.0914 95.6858C23.4285 93.9354 22.597 91.8349 22.597 89.3843C22.597 86.9775 23.4285 84.9207 25.0914 83.214C26.7543 81.5074 28.8111 80.654 31.2617 80.654Z" fill="white"/>
<path d="M49.0915 6.00363L49.0834 5.99964C44.8552 3.90927 39.8993 2.9043 34.2811 2.9043C28.7159 2.9043 23.4689 4.00949 18.5628 6.22992C13.6087 8.42801 9.15288 11.9119 5.18402 16.6107L3.8017 18.2472L5.52919 19.514L13.4061 25.2904L14.9477 26.4209L16.1466 24.932C18.7025 21.7577 21.4621 19.5483 24.4074 18.213L24.4175 18.2085L24.4274 18.2038C27.4883 16.7755 30.3951 16.094 33.1652 16.094C37.2784 16.094 40.5624 17.0278 43.138 18.7701C45.5333 20.3905 46.7222 22.641 46.7222 25.7781C46.7222 28.2816 46.0485 30.2509 44.7974 31.8149C43.3474 33.6273 41.5352 35.3446 39.3416 36.96C36.9784 38.6548 34.6195 40.5023 32.2646 42.5018C29.7524 44.6348 27.676 47.2108 26.0336 50.2113C24.2484 53.3903 23.4196 57.2728 23.4196 61.7494V66.9351V68.9351H25.4196H36.5129H38.5129V66.9351V62.4058C38.5129 59.0671 39.2555 56.523 40.5816 54.6235L40.5889 54.613L40.5961 54.6024C42.0354 52.4835 43.8386 50.6368 46.0203 49.061L46.0275 49.0558L46.0347 49.0506C48.3689 47.333 50.7243 45.5499 53.1008 43.7015C55.6633 41.7084 57.7962 39.2888 59.4956 36.4564L59.4994 36.4501L59.503 36.4439C61.3136 33.3759 62.1437 29.5579 62.1437 25.1217C62.1437 21.2424 60.9827 17.5999 58.7226 14.2318C56.4444 10.7925 53.2042 8.06001 49.0915 6.00363ZM127.522 38.7094V36.7094H125.522H67.3642H66.6496L66.0968 37.1623L54.4783 46.6802L50.1484 50.2274H55.7458H125.522H127.522V48.2274V38.7094ZM127.522 63.5874V61.5874H125.522H47.2781H45.2781V63.5874V73.171V75.171H47.2781H125.522H127.522V73.171V63.5874ZM39.043 97.1001L39.052 97.0911L39.0608 97.082C41.1327 94.9571 42.1888 92.3552 42.1888 89.3843C42.1888 86.4454 41.1236 83.8804 39.0431 81.7998C36.9403 79.6971 34.2998 78.654 31.2617 78.654C28.2889 78.654 25.7102 79.7131 23.6589 81.8183C21.6281 83.9026 20.597 86.4619 20.597 89.3843C20.597 92.339 21.6195 94.935 23.6414 97.0633L23.6501 97.0725L23.6589 97.0816C25.7102 99.1868 28.2889 100.246 31.2617 100.246C34.2998 100.246 36.9403 99.2028 39.043 97.1001Z" stroke="black" stroke-opacity="0.4" stroke-width="4"/>
</svg>
