<?xml version="1.0" encoding="UTF-8"?>
<svg fill="none" viewBox="0 0 130 103" xmlns="http://www.w3.org/2000/svg">
<path d="m34.281 4.9043c5.3826 0 10.021 0.96273 13.916 2.8882 3.851 1.9255 6.8048 4.4417 8.8616 7.5487 2.0567 3.0633 3.0851 6.3234 3.0851 9.7805 0 4.2011-0.7877 7.6363-2.3631 10.306-1.5754 2.6256-3.5446 4.8574-5.9077 6.6954-2.363 1.8379-4.7042 3.6102-7.0236 5.3169-2.363 1.7066-4.3323 3.7196-5.9076 6.039-1.6192 2.3193-2.4288 5.295-2.4288 8.9271v4.5293h-11.093v-5.1857c0-4.2448 0.7877-7.7675 2.3631-10.568 1.5316-2.8007 3.4571-5.1856 5.7764-7.1549 2.3193-1.9692 4.6386-3.7853 6.9579-5.4482 2.3194-1.7066 4.2667-3.5446 5.8421-5.5138s2.3631-4.398 2.3631-7.2862c0-3.7634-1.4879-6.6516-4.4636-8.6646s-6.6735-3.0195-11.093-3.0195c-3.107 0-6.3015 0.7659-9.5835 2.2975-3.2821 1.4878-6.2797 3.9166-8.9929 7.2861l-7.8769-5.7764c3.8072-4.5073 8.0301-7.7894 12.669-9.8461 4.6387-2.1005 9.6055-3.1508 14.9-3.1508zm91.241 33.805v9.518h-69.776l11.618-9.518h58.158zm0 24.878v9.5836h-78.244v-9.5836h78.244zm-94.26 17.067c2.5381 0 4.6605 0.8534 6.3671 2.56 1.7067 1.7067 2.56 3.7635 2.56 6.1703 0 2.4506-0.8533 4.5511-2.56 6.3015-1.7066 1.7067-3.829 2.56-6.3671 2.56-2.4506 0-4.5074-0.8533-6.1703-2.56-1.6629-1.7504-2.4944-3.8509-2.4944-6.3015 0-2.4068 0.8315-4.4636 2.4944-6.1703 1.6629-1.7066 3.7197-2.56 6.1703-2.56z" fill="#fff"/>
<path d="m49.092 6.0036-0.0081-0.00399c-4.2282-2.0904-9.1841-3.0953-14.802-3.0953-5.5652 0-10.812 1.1052-15.718 3.3256-4.9541 2.1981-9.4099 5.682-13.379 10.381l-1.3823 1.6365 1.7275 1.2668 9.4185 6.9069 1.1989-1.4889c2.5559-3.1743 5.3155-5.3837 8.2608-6.719l0.0101-0.0045 0.0099-0.0047c3.0609-1.4283 5.9677-2.1098 8.7378-2.1098 4.1132 0 7.3972 0.9338 9.9728 2.6761 2.3953 1.6204 3.5842 3.8709 3.5842 7.008 0 2.5035-0.6737 4.4728-1.9248 6.0368-1.45 1.8124-3.2622 3.5297-5.4558 5.1451-2.3632 1.6948-4.7221 3.5423-7.077 5.5418-2.5122 2.133-4.5886 4.709-6.231 7.7095-1.7852 3.179-2.614 7.0615-2.614 11.538v7.1857h15.093v-6.5293c0-3.3387 0.7426-5.8828 2.0687-7.7823l0.0073-0.0105 0.0072-0.0106c1.4393-2.1189 3.2425-3.9656 5.4242-5.5414l0.0144-0.0104c2.3342-1.7176 4.6896-3.5007 7.0661-5.3491 2.5625-1.9931 4.6954-4.4127 6.3948-7.2451l0.0038-0.0063 0.0036-0.0062c1.8106-3.068 2.6407-6.886 2.6407-11.322 0-3.8793-1.161-7.5218-3.4211-10.89-2.2782-3.4393-5.5184-6.1718-9.6311-8.2282zm78.43 32.706v-2h-60.872l-0.5528 0.4529-15.948 13.065h77.374v-11.518zm0 24.878v-2h-82.244v13.584h82.244v-11.584zm-88.479 33.513 9e-3 -9e-3 0.0088-0.0091c2.0719-2.1249 3.128-4.7268 3.128-7.6977 0-2.9389-1.0652-5.5039-3.1457-7.5845-2.1028-2.1027-4.7433-3.1458-7.7814-3.1458-2.9728 0-5.5515 1.0591-7.6028 3.1643-2.0308 2.0843-3.0619 4.6436-3.0619 7.566 0 2.9547 1.0225 5.5507 3.0444 7.679l0.0087 0.0092 0.0088 0.0091c2.0513 2.1052 4.63 3.1644 7.6028 3.1644 3.0381 0 5.6786-1.0432 7.7813-3.1459z" stroke="#000" stroke-opacity=".4" stroke-width="4"/>
</svg>
