<?xml version="1.0" encoding="UTF-8"?>
<svg fill="none" viewBox="0 0 90 117" xmlns="http://www.w3.org/2000/svg">
<path d="m5.4023 71.545 64.656-28.357-64.656-28.357 3.9385-8.9272 71.943 32.033v10.568l-71.943 31.967-3.9385-8.9272zm2.4287 30.458 72.008-31.574 3.8728 8.5334-72.008 31.967-3.8728-8.927z" fill="#fff"/>
<path d="m4.599 69.714-1.8356 0.8051 0.80904 1.8338 3.9385 8.9272 0.80942 1.8347 1.8325-0.8143 71.943-31.967 1.1879-0.5278v-13.167l-74.962-33.377-4.7485 10.763-0.80904 1.8338 62.316 27.33-60.48 26.525zm2.4289 30.457-1.8245 0.8 0.79287 1.828 3.8728 8.927 0.8028 1.85 1.8435-0.818 72.008-31.967 1.8431-0.8182-0.8334-1.8363-3.8728-8.5333-0.816-1.798-73.817 32.366z" stroke="#000" stroke-opacity=".4" stroke-width="4"/>
</svg>
