<svg width="90" height="117" viewBox="0 0 90 117" fill="none" xmlns="http://www.w3.org/2000/svg">
<path d="M5.40234 71.5453L70.0588 43.1884L5.40234 14.8315L9.34081 5.9043L81.2834 37.9371V48.5053L9.34081 80.4725L5.40234 71.5453ZM7.83106 102.003L79.8393 70.4294L83.7121 78.9628L11.7039 110.93L7.83106 102.003Z" fill="white"/>
<path d="M4.59905 69.7137L2.76347 70.5188L3.57251 72.3526L7.51097 81.2798L8.32039 83.1145L10.1529 82.3002L82.0955 50.333L83.2834 49.8052V48.5053V37.9371V36.6383L82.0969 36.11L10.1543 4.07722L8.32101 3.26093L7.51097 5.09702L3.57251 14.0242L2.76347 15.858L4.59905 16.6631L65.0793 43.1884L4.59905 69.7137ZM7.02794 100.171L5.20341 100.971L5.99628 102.799L9.8691 111.726L10.6719 113.576L12.5154 112.758L84.5236 80.7907L86.3667 79.9725L85.5333 78.1362L81.6605 69.6029L80.8445 67.8049L79.0361 68.5978L7.02794 100.171Z" stroke="black" stroke-opacity="0.4" stroke-width="4"/>
</svg>
