<svg width="90" height="117" viewBox="0 0 90 117" fill="none" xmlns="http://www.w3.org/2000/svg">
<path d="M84.4025 71.5453L80.4641 80.4725L8.52149 48.5053V37.9371L80.4641 5.9043L84.4025 14.8315L19.7461 43.1884L84.4025 71.5453ZM81.9738 102.003L78.101 110.93L6.09277 78.9628L9.9656 70.4294L81.9738 102.003Z" fill="white"/>
<path d="M86.2323 72.3526L87.0414 70.5188L85.2058 69.7137L24.7256 43.1884L85.2058 16.6631L87.0414 15.858L86.2323 14.0242L82.2939 5.09702L81.4838 3.26093L79.6505 4.07722L7.70798 36.11L6.52149 36.6383V37.9371V48.5053V49.8052L7.70937 50.333L79.6519 82.3002L81.4845 83.1145L82.2939 81.2798L86.2323 72.3526ZM83.8086 102.799L84.6015 100.971L82.7769 100.171L10.7687 68.5978L8.9604 67.8049L8.14438 69.6029L4.27156 78.1362L3.43817 79.9725L5.28127 80.7907L77.2895 112.758L79.133 113.576L79.9358 111.726L83.8086 102.799Z" stroke="black" stroke-opacity="0.4" stroke-width="4"/>
</svg>
