<?xml version="1.0" encoding="UTF-8"?>
<svg fill="none" viewBox="0 0 218 107" xmlns="http://www.w3.org/2000/svg">
<path d="m57.125 82.75-53-23.688v-9.125l53-23.625v12.25l-38.25 15-3.3125 1.0625 3.3125 1.125 38.25 14.75v12.25z" fill="#fff"/>
<path d="M96.5 102.812H86.125L124.125 4H134.438L96.5 102.812Z" fill="#fff"/>
<path d="m158.38 82.688v-12l40.437-15.25 3.75-1.0625-3.75-1.1875-40.437-15v-11.938l55.187 23.625v9.125l-55.187 23.688z" fill="#fff"/>
<path d="m56.309 84.576 2.8161 1.2586v-16.707l-37.544-14.478 36.275-14.225 1.2698-0.4979v-16.695l-55.814 24.88-1.1857 0.5285v11.72l1.1839 0.5291 53 23.688zm40.191 20.236h1.3745l38.43-100.1 1.043-2.7168h-14.597l-0.493 1.2821-38 98.813-1.0452 2.717h13.287zm59.875-22.124v3.0349l57.976-24.884 1.211-0.5199v-11.762l-1.212-0.5192-55.188-23.625-2.787-1.1931v16.36l1.304 0.4838 38.432 14.256-38.442 14.498-1.294 0.4881v13.383z" stroke="#000" stroke-opacity=".4" stroke-width="4"/>
</svg>
