<svg width="218" height="107" viewBox="0 0 218 107" fill="none" xmlns="http://www.w3.org/2000/svg">
<path d="M57.125 82.75L4.125 59.0625V49.9375L57.125 26.3125V38.5625L18.875 53.5625L15.5625 54.625L18.875 55.75L57.125 70.5V82.75Z" fill="white"/>
<path d="M96.5 102.812H86.125L124.125 4H134.438L96.5 102.812Z" fill="white"/>
<path d="M158.375 82.6875V70.6875L198.812 55.4375L202.562 54.375L198.812 53.1875L158.375 38.1875V26.25L213.562 49.875V59L158.375 82.6875Z" fill="white"/>
<path d="M56.3089 84.5759L59.125 85.8345V82.75V70.5V69.1277L57.8446 68.6339L21.5806 54.6498L57.8552 40.4244L59.125 39.9265V38.5625V26.3125V23.2313L56.3107 24.4858L3.31072 48.1108L2.125 48.6393V49.9375V59.0625V60.3593L3.30893 60.8884L56.3089 84.5759ZM96.5 104.812H97.8745L98.3671 103.529L136.305 4.71685L137.348 2H134.438H124.125H122.751L122.258 3.28212L84.2583 102.095L83.2131 104.812H86.125H96.5ZM156.375 82.6875V85.7224L159.164 84.5254L214.351 60.8379L215.562 60.318V59V49.875V48.5556L214.35 48.0364L159.162 24.4114L156.375 23.2183V26.25V38.1875V39.5788L157.679 40.0626L196.111 54.3187L157.669 68.8162L156.375 69.3043V70.6875V82.6875Z" stroke="black" stroke-opacity="0.4" stroke-width="4"/>
</svg>
